<?xml version="1.0" standalone="no"?>
<!DOCTYPE svg PUBLIC "-//W3C//DTD SVG 1.1//EN" "http://www.w3.org/Graphics/SVG/1.1/DTD/svg11.dtd" >
<!--
2013-9-30: Created.
-->
<svg>
<metadata>
Created by iconfont
</metadata>
<defs>

<font id="iconfont" horiz-adv-x="1024" >
  <font-face
    font-family="iconfont"
    font-weight="500"
    font-stretch="normal"
    units-per-em="1024"
    ascent="896"
    descent="-128"
  />
    <missing-glyph />
    
    <glyph glyph-name="arrow-down-" unicode="&#59437;" d="M415.39584 439.00928l28.73344 272.9984a68.23936 68.23936 0 0 0 135.74144 0l28.73344-272.9984A61.44 61.44 0 0 1 669.71648 384h132.15744c20.8896 0 37.80608-17.73568 37.80608-39.60832 0-10.15808-3.72736-19.94752-10.4448-27.32032L553.08288 13.312a54.90688 54.90688 0 0 0-82.1248 0L194.74432 317.07136a40.96 40.96 0 0 0 1.31072 56.0128c7.02464 7.00416 16.384 10.91584 26.07104 10.91584H354.304a61.44 61.44 0 0 1 61.11232 55.00928z"  horiz-adv-x="1024" />

    
    <glyph glyph-name="action" unicode="&#59438;" d="M667.11552 742.48192l-35.2256-61.60384a20.48 20.48 0 0 1 17.8176-30.63808h22.8352a40.96 40.96 0 0 1 35.57376 20.64384l46.63296 81.59232A40.96 40.96 0 0 0 790.30272 773.12H819.2a81.92 81.92 0 0 0 81.92-81.92v-450.56c0-135.72096-110.03904-245.76-245.76-245.76H368.64c-135.72096 0-245.76 110.03904-245.76 245.76V691.2a81.92 81.92 0 0 0 81.92 81.92h75.8784a20.48 20.48 0 0 0 17.79712-30.63808l-35.2256-61.60384a20.48 20.48 0 0 1 17.8176-30.63808h22.8352a40.96 40.96 0 0 1 35.57376 20.64384l46.63296 81.59232A40.96 40.96 0 0 0 421.66272 773.12h43.33568a20.48 20.48 0 0 0 17.79712-30.63808l-35.2256-61.60384a20.48 20.48 0 0 1 17.8176-30.63808h22.8352a40.96 40.96 0 0 1 35.57376 20.64384l46.63296 81.59232A40.96 40.96 0 0 0 605.98272 773.12h43.33568a20.48 20.48 0 0 0 17.79712-30.63808zM389.12 223.51872c0-22.03648 16.09728-30.28992 35.98336-18.39104l194.8672 116.40832c19.8656 11.8784 19.88608 31.1296 0 43.008l-194.8672 116.40832c-19.8656 11.8784-35.98336 3.6864-35.98336-18.39104v-239.04256z"  horiz-adv-x="1024" />

    
    <glyph glyph-name="arrow-down-1" unicode="&#59439;" d="M171.64288 573.41952a34.05824 34.05824 0 0 0 48.9472 8.51968l255.50848-192.14336a59.65824 59.65824 0 0 1 71.80288 0l255.488 192.14336a34.03776 34.03776 0 0 0 48.9472-8.51968c11.79648-17.8176 10.09664-41.43104-4.096-57.344L571.53536 205.9264a79.60576 79.60576 0 0 0-119.07072 0L175.77984 516.05504a47.18592 47.18592 0 0 0-4.13696 57.344z"  horiz-adv-x="1024" />

    
    <glyph glyph-name="apartments" unicode="&#59440;" d="M901.12 35.84v-20.48a20.48 20.48 0 0 0-20.48-20.48H614.4a20.48 20.48 0 0 0-20.48 20.48V261.12a20.48 20.48 0 0 1-20.48 20.48h-122.88a20.48 20.48 0 0 1-20.48-20.48v-245.76a20.48 20.48 0 0 0-20.48-20.48H143.36a20.48 20.48 0 0 0-20.48 20.48v20.48a20.48 20.48 0 0 0 20.48 20.48 20.48 20.48 0 0 1 20.48 20.48V732.16a40.96 40.96 0 0 0 40.96 40.96h614.4a40.96 40.96 0 0 0 40.96-40.96v-655.36a20.48 20.48 0 0 1 20.48-20.48 20.48 20.48 0 0 0 20.48-20.48zM266.24 691.2a20.48 20.48 0 0 1-20.48-20.48v-81.92a20.48 20.48 0 0 1 20.48-20.48h81.92a20.48 20.48 0 0 1 20.48 20.48v81.92a20.48 20.48 0 0 1-20.48 20.48h-81.92z m204.8 0a20.48 20.48 0 0 1-20.48-20.48v-81.92a20.48 20.48 0 0 1 20.48-20.48h81.92a20.48 20.48 0 0 1 20.48 20.48v81.92a20.48 20.48 0 0 1-20.48 20.48h-81.92z m204.8 0a20.48 20.48 0 0 1-20.48-20.48v-81.92a20.48 20.48 0 0 1 20.48-20.48h81.92a20.48 20.48 0 0 1 20.48 20.48v81.92a20.48 20.48 0 0 1-20.48 20.48h-81.92zM266.24 486.4a20.48 20.48 0 0 1-20.48-20.48v-81.92a20.48 20.48 0 0 1 20.48-20.48h81.92a20.48 20.48 0 0 1 20.48 20.48v81.92a20.48 20.48 0 0 1-20.48 20.48h-81.92z m204.8 0a20.48 20.48 0 0 1-20.48-20.48v-81.92a20.48 20.48 0 0 1 20.48-20.48h81.92a20.48 20.48 0 0 1 20.48 20.48v81.92a20.48 20.48 0 0 1-20.48 20.48h-81.92z m204.8 0a20.48 20.48 0 0 1-20.48-20.48v-81.92a20.48 20.48 0 0 1 20.48-20.48h81.92a20.48 20.48 0 0 1 20.48 20.48v81.92a20.48 20.48 0 0 1-20.48 20.48h-81.92zM266.24 281.6a20.48 20.48 0 0 1-20.48-20.48v-40.96a20.48 20.48 0 0 1 20.48-20.48h81.92a20.48 20.48 0 0 1 20.48 20.48v40.96a20.48 20.48 0 0 1-20.48 20.48h-81.92z m409.6 0a20.48 20.48 0 0 1-20.48-20.48v-40.96a20.48 20.48 0 0 1 20.48-20.48h81.92a20.48 20.48 0 0 1 20.48 20.48v40.96a20.48 20.48 0 0 1-20.48 20.48h-81.92z"  horiz-adv-x="1024" />

    
    <glyph glyph-name="ad-" unicode="&#59441;" d="M327.68 35.84v122.88a40.96 40.96 0 1 1-81.92 0v-122.88a40.96 40.96 0 0 0-40.96-40.96H163.84a40.96 40.96 0 0 0-40.96 40.96V691.2a81.92 81.92 0 0 0 81.92 81.92h614.4a81.92 81.92 0 0 0 81.92-81.92v-450.56a40.96 40.96 0 0 0-40.96-40.96h-163.84a40.96 40.96 0 0 1-40.96-40.96v-122.88a40.96 40.96 0 0 0-40.96-40.96h-40.96a40.96 40.96 0 0 0-40.96 40.96v122.88a40.96 40.96 0 1 1-81.92 0v-122.88a40.96 40.96 0 0 0-40.96-40.96h-40.96a40.96 40.96 0 0 0-40.96 40.96z m-20.48 593.92a40.96 40.96 0 1 1 0-81.92h409.6a40.96 40.96 0 1 1 0 81.92H307.2z m0-163.84a40.96 40.96 0 1 1 0-81.92h204.8a40.96 40.96 0 1 1 0 81.92H307.2z"  horiz-adv-x="1024" />

    
    <glyph glyph-name="arrow-up-" unicode="&#59442;" d="M415.39584 328.99072A61.44 61.44 0 0 1 354.28352 384h-132.15744c-9.70752 0-19.0464 3.91168-26.07104 10.91584a40.96 40.96 0 0 0-1.31072 56.0128L470.9376 754.688c0.6144 0.69632 1.29024 1.37216 1.9456 2.048a54.90688 54.90688 0 0 0 80.1792-2.048l276.19328-303.75936c6.69696-7.3728 10.42432-17.16224 10.42432-27.32032C839.68 401.73568 822.74304 384 801.87392 384H669.696a61.44 61.44 0 0 1-61.11232-55.00928l-28.73344-272.9984a68.23936 68.23936 0 0 0-135.74144 0l-28.73344 272.9984z"  horiz-adv-x="1024" />

    
    <glyph glyph-name="arrow-right-" unicode="&#59443;" d="M322.58048 43.64288a34.05824 34.05824 0 0 0-8.51968 48.9472l192.14336 255.50848a59.65824 59.65824 0 0 1 0 71.80288l-192.14336 255.488a34.03776 34.03776 0 0 0 8.51968 48.9472 47.18592 47.18592 0 0 0 57.344-4.096l310.12864-276.70528a79.60576 79.60576 0 0 0 0-119.07072l-310.10816-276.6848a47.18592 47.18592 0 0 0-57.344-4.13696z"  horiz-adv-x="1024" />

    
    <glyph glyph-name="arrow-down-2" unicode="&#59444;" d="M204.8 773.12h614.4a81.92 81.92 0 0 0 81.92-81.92v-614.4a81.92 81.92 0 0 0-81.92-81.92H204.8a81.92 81.92 0 0 0-81.92 81.92V691.2a81.92 81.92 0 0 0 81.92 81.92z m253.952-549.49888c29.61408-31.92832 76.88192-31.92832 106.496 0l199.63904 215.28576 0.90112 1.00352c17.01888 19.456 16.52736 50.44224-1.10592 69.2224-19.29216 20.52096-48.82432 23.81824-71.4752 7.96672l-150.58944-105.49248c-18.67776-13.1072-42.55744-13.1072-61.2352 0L330.1376 517.5296c-22.26176 15.5648-51.3024 12.34944-70.26688-7.84384l-0.55296-0.57344a46.8992 46.8992 0 0 1-0.90112-1.024c-17.14176-19.31264-16.83456-50.29888 0.69632-69.2224l199.65952-215.26528z"  horiz-adv-x="1024" />

    
    <glyph glyph-name="arrow-left-" unicode="&#59445;" d="M567.00928 287.39584A61.44 61.44 0 0 1 512 226.28352v-132.15744c0-9.70752-3.91168-19.0464-10.91584-26.07104a40.96 40.96 0 0 0-56.0128-1.31072L141.312 342.9376a54.90688 54.90688 0 0 0 0 82.1248L445.07136 701.25568c7.3728 6.69696 17.16224 10.42432 27.32032 10.42432C494.26432 711.68 512 694.74304 512 673.87392V541.696a61.44 61.44 0 0 1 55.00928-61.11232l272.9984-28.73344a68.23936 68.23936 0 0 0 0-135.74144l-272.9984-28.73344z"  horiz-adv-x="1024" />

    
    <glyph glyph-name="arrow-right-1" unicode="&#59446;" d="M456.99072 287.39584l-272.9984 28.73344a68.23936 68.23936 0 0 0 0 135.74144l272.9984 28.73344A61.44 61.44 0 0 1 512 541.71648v132.15744C512 694.76352 529.73568 711.68 551.60832 711.68c10.15808 0 19.94752-3.72736 27.32032-10.4448L882.688 425.08288a54.90688 54.90688 0 0 0 0-82.1248L578.92864 66.74432a40.96 40.96 0 0 0-56.0128 1.31072A36.90496 36.90496 0 0 0 512 94.12608V226.304a61.44 61.44 0 0 1-55.00928 61.11232z"  horiz-adv-x="1024" />

    
    <glyph glyph-name="arrow-left-1" unicode="&#59447;" d="M512-66.56C263.168-66.56 61.44 135.168 61.44 384S263.168 834.56 512 834.56s450.56-201.728 450.56-450.56-201.728-450.56-450.56-450.56z m-180.85888 397.312l215.28576-199.63904c18.90304-17.53088 49.88928-17.83808 69.2224-0.69632a46.8992 46.8992 0 0 1 1.00352 0.90112l0.57344 0.55296c20.19328 18.96448 23.42912 48.00512 7.84384 70.26688l-105.94304 151.2448a52.65408 52.65408 0 0 0 0 61.2352l105.472 150.60992c15.872 22.6304 12.57472 52.16256-7.94624 71.45472-18.78016 17.63328-49.7664 18.1248-69.2224 1.10592l-1.024-0.90112-215.26528-199.65952c-31.92832-29.5936-31.92832-76.86144 0-106.45504z"  horiz-adv-x="1024" />

    
    <glyph glyph-name="arrow-left-2" unicode="&#59448;" d="M701.41952 43.64288a47.18592 47.18592 0 0 0-57.344 4.11648L333.9264 324.46464a79.60576 79.60576 0 0 0 0 119.05024L644.05504 720.26112a47.18592 47.18592 0 0 0 58.83904 3.072c15.29856-11.30496 18.45248-32.768 7.04512-47.9232l-192.14336-255.488a59.65824 59.65824 0 0 1 0-71.80288l192.14336-255.488 1.06496-1.47456a34.05824 34.05824 0 0 0-9.58464-47.49312z"  horiz-adv-x="1024" />

    
    <glyph glyph-name="arrow-down-3" unicode="&#59449;" d="M61.44 384C61.44 632.832 263.168 834.56 512 834.56s450.56-201.728 450.56-450.56-201.728-450.56-450.56-450.56S61.44 135.168 61.44 384z m397.312-180.85888c29.61408-31.92832 76.88192-31.92832 106.496 0l199.63904 215.28576 0.90112 1.00352c17.01888 19.456 16.52736 50.44224-1.10592 69.2224-19.29216 20.52096-48.82432 23.81824-71.4752 7.96672l-150.58944-105.49248c-18.67776-13.1072-42.55744-13.1072-61.2352 0L330.1376 497.0496c-22.26176 15.5648-51.3024 12.34944-70.26688-7.84384l-0.55296-0.57344a46.8992 46.8992 0 0 1-0.90112-1.024c-17.14176-19.31264-16.83456-50.29888 0.69632-69.2224l199.65952-215.26528z"  horiz-adv-x="1024" />

    
    <glyph glyph-name="arrow-up-1" unicode="&#59450;" d="M171.64288 194.58048a47.18592 47.18592 0 0 0 4.11648 57.344l276.70528 310.12864a79.60576 79.60576 0 0 0 119.05024 0l276.72576-310.10816a47.18592 47.18592 0 0 0 3.072-58.83904c-11.30496-15.29856-32.768-18.45248-47.9232-7.04512l-255.488 192.14336a59.65824 59.65824 0 0 1-71.80288 0l-255.488-192.14336a34.05824 34.05824 0 0 0-48.9472 8.54016z"  horiz-adv-x="1024" />

    
    <glyph glyph-name="arrow-left-3" unicode="&#59451;" d="M204.8 773.12h614.4a81.92 81.92 0 0 0 81.92-81.92v-614.4a81.92 81.92 0 0 0-81.92-81.92H204.8a81.92 81.92 0 0 0-81.92 81.92V691.2a81.92 81.92 0 0 0 81.92 81.92z m146.82112-442.368l215.28576-199.63904c18.90304-17.53088 49.88928-17.83808 69.2224-0.69632a46.8992 46.8992 0 0 1 1.00352 0.90112l0.57344 0.55296c20.19328 18.96448 23.42912 48.00512 7.84384 70.26688l-105.94304 151.2448a52.65408 52.65408 0 0 0 0 61.2352l105.472 150.60992c15.872 22.6304 12.57472 52.16256-7.94624 71.45472-18.78016 17.63328-49.7664 18.1248-69.2224 1.10592l-1.024-0.90112-215.26528-199.65952c-31.92832-29.5936-31.92832-76.86144 0-106.45504z"  horiz-adv-x="1024" />

    
    <glyph glyph-name="arrow-right-2" unicode="&#59452;" d="M204.8 773.12h614.4a81.92 81.92 0 0 0 81.92-81.92v-614.4a81.92 81.92 0 0 0-81.92-81.92H204.8a81.92 81.92 0 0 0-81.92 81.92V691.2a81.92 81.92 0 0 0 81.92 81.92z m467.57888-442.368c31.92832 29.61408 31.92832 76.88192 0 106.496L457.1136 636.86656a47.0016 47.0016 0 0 1-1.00352 0.90112c-19.456 17.01888-50.44224 16.52736-69.2224-1.10592-20.52096-19.29216-23.81824-48.82432-7.96672-71.4752l105.49248-150.58944c13.1072-18.67776 13.1072-42.55744 0-61.2352L378.4704 202.1376c-15.5648-22.26176-12.34944-51.3024 7.84384-70.26688l0.57344-0.55296 1.024-0.90112c19.31264-17.14176 50.29888-16.83456 69.2224 0.69632l215.26528 199.65952z"  horiz-adv-x="1024" />

    
    <glyph glyph-name="arrow-right-3" unicode="&#59453;" d="M512-66.56C263.168-66.56 61.44 135.168 61.44 384S263.168 834.56 512 834.56s450.56-201.728 450.56-450.56-201.728-450.56-450.56-450.56z m180.85888 397.312c31.92832 29.61408 31.92832 76.88192 0 106.496L477.5936 636.86656a47.0016 47.0016 0 0 1-1.00352 0.90112c-19.456 17.01888-50.44224 16.52736-69.2224-1.10592-20.52096-19.29216-23.81824-48.82432-7.96672-71.4752l105.49248-150.58944c13.1072-18.67776 13.1072-42.55744 0-61.2352L398.9504 202.1376c-15.5648-22.26176-12.34944-51.3024 7.84384-70.26688l0.57344-0.55296 1.024-0.90112c19.31264-17.14176 50.29888-16.83456 69.2224 0.69632l215.26528 199.65952z"  horiz-adv-x="1024" />

    
    <glyph glyph-name="arrow-up-2" unicode="&#59454;" d="M962.56 384c0-248.832-201.728-450.56-450.56-450.56S61.44 135.168 61.44 384 263.168 834.56 512 834.56s450.56-201.728 450.56-450.56z m-397.312 180.85888c-29.61408 31.92832-76.88192 31.92832-106.496 0L259.13344 349.5936l-0.90112-1.00352c-17.01888-19.456-16.52736-50.44224 1.10592-69.2224 19.29216-20.52096 48.82432-23.81824 71.4752-7.96672l150.58944 105.49248a52.65408 52.65408 0 0 0 61.2352 0l151.2448-105.94304c22.26176-15.5648 51.3024-12.34944 70.26688 7.84384l0.55296 0.57344a46.8992 46.8992 0 0 1 0.90112 1.024c17.14176 19.31264 16.83456 50.29888-0.69632 69.2224l-199.68 215.22432z"  horiz-adv-x="1024" />

    
    <glyph glyph-name="battery-" unicode="&#59455;" d="M921.6 486.4h10.24a30.72 30.72 0 0 0 30.72-30.72v-143.36a30.72 30.72 0 0 0-30.72-30.72H921.6a20.48 20.48 0 0 1-20.48-20.48v-20.48a122.88 122.88 0 0 0-122.88-122.88H184.32a122.88 122.88 0 0 0-122.88 122.88V527.36a122.88 122.88 0 0 0 122.88 122.88h593.92a122.88 122.88 0 0 0 122.88-122.88v-20.48a20.48 20.48 0 0 1 20.48-20.48zM184.32 568.32a40.96 40.96 0 0 1-40.96-40.96v-286.72a40.96 40.96 0 0 1 40.96-40.96h593.92a40.96 40.96 0 0 1 40.96 40.96V527.36a40.96 40.96 0 0 1-40.96 40.96H184.32z m40.96-61.44h435.8144a20.48 20.48 0 0 0 19.41504-14.00832l68.25984-204.8A20.48 20.48 0 0 0 729.35424 261.12H225.28a20.48 20.48 0 0 0-20.48 20.48V486.4a20.48 20.48 0 0 0 20.48 20.48z"  horiz-adv-x="1024" />

    
    <glyph glyph-name="board" unicode="&#59456;" d="M558.20288 199.68h-92.40576l-80.19968-180.46976a40.96 40.96 0 1 0-74.87488 33.25952L376.15616 199.68H153.6a30.72 30.72 0 0 0 0 61.44A30.72 30.72 0 0 1 184.32 291.84v389.12A30.72 30.72 0 0 1 153.6 711.68a30.72 30.72 0 0 0 0 61.44h716.8a30.72 30.72 0 0 0 0-61.44 30.72 30.72 0 0 1-30.72-30.72v-389.12a30.72 30.72 0 0 1 30.72-30.72 30.72 30.72 0 0 0 0-61.44H647.84384l65.4336-147.21024a40.96 40.96 0 1 0-74.87488-33.25952L558.20288 199.68z m-232.0384 153.86624l119.3984 121.87648 98.69312-71.94624a34.57024 34.57024 0 0 1 45.24032 3.82976l157.98272 161.28c13.7216 13.98784 13.7216 36.67968 0 50.66752a34.6112 34.6112 0 0 1-49.64352 0l-136.97024-139.79648-98.67264 71.94624a34.57024 34.57024 0 0 1-45.24032-3.82976l-140.43136-143.36a36.37248 36.37248 0 0 1 0-50.66752 34.6112 34.6112 0 0 1 49.64352 0z"  horiz-adv-x="1024" />

    
    <glyph glyph-name="arrow-up-3" unicode="&#59457;" d="M204.8 773.12h614.4a81.92 81.92 0 0 0 81.92-81.92v-614.4a81.92 81.92 0 0 0-81.92-81.92H204.8a81.92 81.92 0 0 0-81.92 81.92V691.2a81.92 81.92 0 0 0 81.92 81.92z m360.448-228.74112c-29.61408 31.92832-76.88192 31.92832-106.496 0L259.13344 329.1136l-0.90112-1.00352c-17.01888-19.456-16.52736-50.44224 1.10592-69.2224 19.29216-20.52096 48.82432-23.81824 71.4752-7.96672l150.58944 105.49248a52.65408 52.65408 0 0 0 61.2352 0l151.2448-105.94304c22.26176-15.5648 51.3024-12.34944 70.26688 7.84384l0.55296 0.57344a46.8992 46.8992 0 0 1 0.90112 1.024c17.14176 19.31264 16.83456 50.29888-0.69632 69.2224l-199.68 215.22432z"  horiz-adv-x="1024" />

    
    <glyph glyph-name="battery-1" unicode="&#59458;" d="M921.6 486.4h10.24a30.72 30.72 0 0 0 30.72-30.72v-143.36a30.72 30.72 0 0 0-30.72-30.72H921.6a20.48 20.48 0 0 1-20.48-20.48v-20.48a122.88 122.88 0 0 0-122.88-122.88H184.32a122.88 122.88 0 0 0-122.88 122.88V527.36a122.88 122.88 0 0 0 122.88 122.88h593.92a122.88 122.88 0 0 0 122.88-122.88v-20.48a20.48 20.48 0 0 1 20.48-20.48z m-143.36-187.5968c0 16.44544-7.84384 31.92832-21.0944 41.5744L474.78784 546.0992a26.13248 26.13248 0 0 1-35.4304-24.4736v-73.74848a13.0048 13.0048 0 0 0-17.75616-12.22656l-192.512 75.32544a17.87904 17.87904 0 0 1-24.28928-16.71168l-0.02048-6.98368c0-12.14464 5.57056-23.59296 15.09376-31.04768l294.7072-230.54336a26.05056 26.05056 0 0 1 42.0864 20.6848v96.1536a13.0048 13.0048 0 0 0 18.57536 11.8784l178.7904-72.0896A17.69472 17.69472 0 0 1 778.24 298.8032z"  horiz-adv-x="1024" />

    
    <glyph glyph-name="binoculars" unicode="&#59459;" d="M450.56 250.88a194.56 194.56 0 0 0-194.56-194.56C148.54144 56.32 61.44 153.66144 61.44 261.12c0 47.37024 16.87552 100.90496 44.9536 134.63552l148.0704 246.784A112.68096 112.68096 0 0 0 471.04 599.04c0-4.07552-0.06144-8.86784-0.2048-14.37696a205.7216 205.7216 0 0 0 82.3296 0A612.352 612.352 0 0 0 552.96 599.04a112.64 112.64 0 0 0 216.576 43.49952l148.0704-246.784C945.664 362.02496 962.56 308.49024 962.56 261.12c0-107.45856-87.10144-204.8-194.56-204.8a194.56 194.56 0 0 0-194.56 194.56l-1.8432 25.64096A122.32704 122.32704 0 0 0 512 261.12a122.32704 122.32704 0 0 0-59.5968 15.40096L450.56 250.88z m61.44 71.68a61.44 61.44 0 1 1 0 122.88 61.44 61.44 0 0 1 0-122.88zM256 117.76a133.12 133.12 0 1 1 0 266.24 133.12 133.12 0 0 1 0-266.24z m512 0a133.12 133.12 0 1 1 0 266.24 133.12 133.12 0 0 1 0-266.24zM163.84 257.024a24.576 24.576 0 1 0 49.152 0 49.152 49.152 0 0 1 49.152-49.152 24.576 24.576 0 1 0 0-49.152A98.304 98.304 0 0 0 163.84 257.024z m512 0a24.576 24.576 0 1 0 49.152 0 49.152 49.152 0 0 1 49.152-49.152 24.576 24.576 0 1 0 0-49.152 98.304 98.304 0 0 0-98.304 98.304z"  horiz-adv-x="1024" />

    
    <glyph glyph-name="bank" unicode="&#59460;" d="M389.12 465.92h-40.96a40.96 40.96 0 0 1-40.96-40.96v-286.72a40.96 40.96 0 0 1 40.96-40.96h40.96a40.96 40.96 0 0 1 40.96 40.96V424.96a40.96 40.96 0 0 1-40.96 40.96z m204.8-40.96v-286.72a40.96 40.96 0 0 1 40.96-40.96h40.96a40.96 40.96 0 0 1 40.96 40.96V424.96a40.96 40.96 0 0 1-40.96 40.96h-40.96a40.96 40.96 0 0 1-40.96-40.96z m286.72 0v-286.72a40.96 40.96 0 0 1 40.96-40.96 40.96 40.96 0 0 0 40.96-40.96v-40.96a81.92 81.92 0 0 0-81.92-81.92H143.36a81.92 81.92 0 0 0-81.92 81.92v40.96a40.96 40.96 0 0 0 40.96 40.96 40.96 40.96 0 0 1 40.96 40.96V424.96a40.96 40.96 0 0 1-40.96 40.96 40.96 40.96 0 0 0-40.96 40.96v38.89152a40.96 40.96 0 0 0 19.0464 34.6112l376.54528 238.1824a102.4 102.4 0 0 0 109.93664 0l376.5248-238.1824a40.96 40.96 0 0 0 19.06688-34.6112V506.88a40.96 40.96 0 0 0-40.96-40.96 40.96 40.96 0 0 1-40.96-40.96z m-368.64 122.88a81.92 81.92 0 1 1 0 163.84 81.92 81.92 0 0 1 0-163.84z"  horiz-adv-x="1024" />

    
    <glyph glyph-name="battery-2" unicode="&#59461;" d="M921.6 486.4h10.24a30.72 30.72 0 0 0 30.72-30.72v-143.36a30.72 30.72 0 0 0-30.72-30.72H921.6a20.48 20.48 0 0 1-20.48-20.48v-20.48a122.88 122.88 0 0 0-122.88-122.88H184.32a122.88 122.88 0 0 0-122.88 122.88V527.36a122.88 122.88 0 0 0 122.88 122.88h593.92a122.88 122.88 0 0 0 122.88-122.88v-20.48a20.48 20.48 0 0 1 20.48-20.48zM184.32 568.32a40.96 40.96 0 0 1-40.96-40.96v-286.72a40.96 40.96 0 0 1 40.96-40.96h593.92a40.96 40.96 0 0 1 40.96 40.96V527.36a40.96 40.96 0 0 1-40.96 40.96H184.32z m40.96-61.44h26.2144a20.48 20.48 0 0 0 19.41504-14.00832l68.25984-204.8A20.48 20.48 0 0 0 319.75424 261.12H225.28a20.48 20.48 0 0 0-20.48 20.48V486.4a20.48 20.48 0 0 0 20.48 20.48z"  horiz-adv-x="1024" />

    
    <glyph glyph-name="bluetooth" unicode="&#59462;" d="M465.18272 293.888l-202.91584-203.85792a46.10048 46.10048 0 0 0-64.57344 0 44.62592 44.62592 0 0 0 0 63.71328l238.44864 239.55456L198.0416 622.42816a43.84768 43.84768 0 0 0 0 63.71328 48.128 48.128 0 0 0 66.21184 0l200.94976-193.39264V789.42208c0 37.13024 44.032 58.32704 74.89536 36.0448l280.8832-202.71104a44.032 44.032 0 0 0 0-72.0896L590.0288 384l230.93248-166.68672a44.032 44.032 0 0 0 0-72.06912L540.0576-57.46688c-30.84288-22.28224-74.89536-1.08544-74.89536 36.0448V293.888z"  horiz-adv-x="1024" />

    
    <glyph glyph-name="battery-3" unicode="&#59463;" d="M921.6 486.4h10.24a30.72 30.72 0 0 0 30.72-30.72v-143.36a30.72 30.72 0 0 0-30.72-30.72H921.6a20.48 20.48 0 0 1-20.48-20.48v-20.48a122.88 122.88 0 0 0-122.88-122.88H184.32a122.88 122.88 0 0 0-122.88 122.88V527.36a122.88 122.88 0 0 0 122.88 122.88h593.92a122.88 122.88 0 0 0 122.88-122.88v-20.48a20.48 20.48 0 0 1 20.48-20.48zM184.32 568.32a40.96 40.96 0 0 1-40.96-40.96v-286.72a40.96 40.96 0 0 1 40.96-40.96h593.92a40.96 40.96 0 0 1 40.96 40.96V527.36a40.96 40.96 0 0 1-40.96 40.96H184.32z m40.96-61.44h271.9744a20.48 20.48 0 0 0 19.41504-14.00832l68.25984-204.8A20.48 20.48 0 0 0 565.51424 261.12H225.28a20.48 20.48 0 0 0-20.48 20.48V486.4a20.48 20.48 0 0 0 20.48 20.48z"  horiz-adv-x="1024" />

    
    <glyph glyph-name="backspace" unicode="&#59464;" d="M319.67232 711.68H880.64a81.92 81.92 0 0 0 81.92-81.92v-491.52a81.92 81.92 0 0 0-81.92-81.92H319.65184a122.88 122.88 0 0 0-104.20224 57.7536L73.89184 340.48a81.92 81.92 0 0 0 0 86.8352l141.57824 226.57024A122.88 122.88 0 0 0 319.67232 711.68z m408.51456-482.42688a31.06816 31.06816 0 0 1 2.2528 41.41056l-70.656 88.1664a40.2432 40.2432 0 0 0 0 50.33984l70.656 88.1664a31.06816 31.06816 0 0 1-43.66336 43.68384l-88.1664-70.656a40.2432 40.2432 0 0 0-50.33984 0l-88.1664 70.656a31.06816 31.06816 0 0 1-43.68384-43.68384l70.656-88.1664c11.79648-14.70464 11.79648-35.6352 0-50.33984l-70.656-88.1664a31.06816 31.06816 0 0 1 43.68384-43.68384l88.1664 70.656a40.2432 40.2432 0 0 0 50.33984 0l88.1664-70.656a31.06816 31.06816 0 0 1 41.41056 2.27328z"  horiz-adv-x="1024" />

    
    <glyph glyph-name="bookmark-remove" unicode="&#59465;" d="M286.72 650.24a40.96 40.96 0 1 1-81.92 0v-204.8a40.96 40.96 0 1 0-81.92 0V650.24a122.88 122.88 0 0 0 122.88 122.88h573.44a81.92 81.92 0 0 0 81.92-81.92v-635.20768c0-15.48288-5.89824-30.37184-16.52736-41.69728a61.66528 61.66528 0 0 0-86.8352-2.9696l-162.14016 149.83168a61.44 61.44 0 0 1-83.39456 0l-162.14016-149.83168a61.66528 61.66528 0 0 0-86.8352 2.9696A60.928 60.928 0 0 0 286.72 55.99232V650.24z m344.10496-92.30336a58.28608 58.28608 0 0 0-73.80992 0l-53.8624 44.07296a32.19456 32.19456 0 0 1-45.32224-45.32224l44.07296-53.8624a58.28608 58.28608 0 0 0 0-73.80992l-44.07296-53.8624a32.19456 32.19456 0 0 1 45.32224-45.32224l53.8624 44.07296a58.28608 58.28608 0 0 0 73.80992 0l53.8624-44.07296a32.19456 32.19456 0 0 1 45.32224 45.32224l-44.07296 53.8624a58.28608 58.28608 0 0 0 0 73.80992l44.07296 53.8624a32.19456 32.19456 0 0 1-45.32224 45.32224l-53.8624-44.07296z"  horiz-adv-x="1024" />

    
    <glyph glyph-name="bow-tie" unicode="&#59466;" d="M450.56 506.88h122.88a40.96 40.96 0 0 0 40.96-40.96v-163.84a40.96 40.96 0 0 0-40.96-40.96h-122.88a40.96 40.96 0 0 0-40.96 40.96v163.84a40.96 40.96 0 0 0 40.96 40.96z m-102.4-92.16h-51.2a30.72 30.72 0 0 1 0-61.44H348.16a20.48 20.48 0 0 0 20.48-20.48v-43.43808a39.7312 39.7312 0 0 0-23.63392-36.06528l-196.13696-88.96512c-30.76096-13.9264-67.31776-1.024-81.67424 28.8768A58.30656 58.30656 0 0 0 61.44 218.4192V549.56032C61.44 582.53312 88.94464 609.28 122.88 609.28c8.97024 0 17.83808-1.90464 25.98912-5.61152l196.13696-88.94464A39.7312 39.7312 0 0 0 368.64 478.65856V435.2a20.48 20.48 0 0 0-20.48-20.48z m327.68 0a20.48 20.48 0 0 0-20.48 20.48v43.45856c0 15.4624 9.216 29.53216 23.63392 36.06528l196.13696 88.94464c8.15104 3.6864 16.9984 5.61152 25.98912 5.61152 33.93536 0 61.44-26.7264 61.44-59.71968v-331.12064c0-8.72448-1.96608-17.34656-5.75488-25.25184-14.35648-29.88032-50.91328-42.8032-81.67424-28.85632l-196.13696 88.96512A39.7312 39.7312 0 0 0 655.36 289.36192V332.8a20.48 20.48 0 0 0 20.48 20.48h51.2a30.72 30.72 0 0 1 0 61.44H675.84z"  horiz-adv-x="1024" />

    
    <glyph glyph-name="box" unicode="&#59467;" d="M650.56768 773.12H819.2a81.92 81.92 0 0 0 81.92-81.92v-450.56c0-135.72096-110.03904-245.76-245.76-245.76H368.64c-135.72096 0-245.76 110.03904-245.76 245.76V691.2a81.92 81.92 0 0 0 81.92 81.92h168.63232a40.96 40.96 0 0 0 40.6528-35.88096l11.50976-92.07808A40.96 40.96 0 0 1 466.24768 609.28h91.50464a40.96 40.96 0 0 1 40.6528 35.88096l11.50976 92.07808A40.96 40.96 0 0 0 650.56768 773.12z m-30.65856-539.4432l9.99424-93.3888c1.37216-12.82048 12.34944-22.528 25.45664-22.528 13.1072 0 24.08448 9.70752 25.45664 22.528l9.99424 93.3888A30.72 30.72 0 0 0 721.36704 261.12h42.7008a14.39744 14.39744 0 0 1 14.17216 14.58176 14.82752 14.82752 0 0 1-3.91168 10.07616l-103.56736 111.90272a20.84864 20.84864 0 0 1-30.80192 0l-103.56736-111.90272a14.88896 14.88896 0 0 1 0.49152-20.62336 13.9264 13.9264 0 0 1 9.76896-4.03456h42.7008a30.72 30.72 0 0 0 30.55616-27.4432z"  horiz-adv-x="1024" />

    
    <glyph glyph-name="bot" unicode="&#59468;" d="M683.1104 609.28H798.72a81.92 81.92 0 0 0 81.92-81.92v-40.96h40.96a40.96 40.96 0 0 0 40.96-40.96v-143.36a40.96 40.96 0 0 0-40.96-40.96h-40.96v-20.48c0-135.72096-110.03904-245.76-245.76-245.76H389.12c-135.72096 0-245.76 110.03904-245.76 245.76v20.48H102.4a40.96 40.96 0 0 0-40.96 40.96v143.36a40.96 40.96 0 0 0 40.96 40.96h40.96v40.96a81.92 81.92 0 0 0 81.92 81.92h115.6096l-23.47008 41.82016a61.44 61.44 0 1 0 63.85664 30.5152L421.888 609.28h180.224l40.59136 72.33536a61.44 61.44 0 1 0 63.85664-30.5152L683.13088 609.28zM430.08 220.16a40.96 40.96 0 1 1 0-81.92h163.84a40.96 40.96 0 1 1 0 81.92h-163.84z m-92.16 102.4a71.68 71.68 0 1 1 0 143.36 71.68 71.68 0 0 1 0-143.36z m348.16 0a71.68 71.68 0 1 1 0 143.36 71.68 71.68 0 0 1 0-143.36z"  horiz-adv-x="1024" />

    
    <glyph glyph-name="box-" unicode="&#59469;" d="M455.10656 746.12736L389.12 549.51936v-165.66272c0-4.01408 1.18784-7.92576 3.44064-11.264 6.26688-9.35936 18.98496-11.8784 28.40576-5.65248l68.36224 45.2608a41.20576 41.20576 0 0 0 45.42464-0.02048l68.28032-45.21984c3.35872-2.2528 7.33184-3.42016 11.3664-3.42016 11.30496 0 20.48 9.09312 20.48 20.33664v165.66272l-65.98656 196.58752A20.48 20.48 0 0 0 588.30848 773.12h141.312a81.92 81.92 0 0 0 71.90528-42.7008l84.5824-155.07456A122.88 122.88 0 0 0 901.12 516.5056V240.64c0-135.72096-110.03904-245.76-245.76-245.76H368.64c-135.72096 0-245.76 110.03904-245.76 245.76V516.5056a122.88 122.88 0 0 0 15.01184 58.83904l84.5824 155.07456A81.92 81.92 0 0 0 294.4 773.12h141.29152a20.48 20.48 0 0 0 19.41504-26.99264z"  horiz-adv-x="1024" />

    
    <glyph glyph-name="bookmark" unicode="&#59470;" d="M286.72 650.24a40.96 40.96 0 1 1-81.92 0v-204.8a40.96 40.96 0 1 0-81.92 0V650.24a122.88 122.88 0 0 0 122.88 122.88h573.44a81.92 81.92 0 0 0 81.92-81.92v-635.20768c0-15.48288-5.89824-30.37184-16.52736-41.69728a61.66528 61.66528 0 0 0-86.8352-2.9696l-162.14016 149.83168a61.44 61.44 0 0 1-83.39456 0l-162.14016-149.83168a61.66528 61.66528 0 0 0-86.8352 2.9696A60.928 60.928 0 0 0 286.72 55.99232V650.24z m307.2-282.35776l67.72736-60.06784a21.95456 21.95456 0 0 1 36.33152 19.51744l-14.37696 103.2192 65.41312 49.43872a22.016 22.016 0 0 1-8.9088 39.13728l-86.20032 17.34656-40.30464 81.1008a21.99552 21.99552 0 0 1-39.36256 0l-40.30464-81.1008-86.2208-17.34656a22.03648 22.03648 0 0 1-8.9088-39.13728l65.4336-49.43872-19.12832-102.4a21.95456 21.95456 0 0 1 35.6352-20.992L593.92 367.86176z"  horiz-adv-x="1024" />

    
    <glyph glyph-name="bookmark-add" unicode="&#59471;" d="M286.72 650.24a40.96 40.96 0 1 1-81.92 0v-204.8a40.96 40.96 0 1 0-81.92 0V650.24a122.88 122.88 0 0 0 122.88 122.88h573.44a81.92 81.92 0 0 0 81.92-81.92v-635.20768c0-15.48288-5.89824-30.37184-16.52736-41.69728a61.66528 61.66528 0 0 0-86.8352-2.9696l-162.14016 149.83168a61.44 61.44 0 0 1-83.39456 0l-162.14016-149.83168a61.66528 61.66528 0 0 0-86.8352 2.9696A60.928 60.928 0 0 0 286.72 55.99232V650.24z m273.48992-105.472a50.42176 50.42176 0 0 0-45.13792-45.13792l-59.904-6.00064a27.8528 27.8528 0 0 1 0-55.41888l59.904-6.00064a50.42176 50.42176 0 0 0 45.13792-45.13792l6.00064-59.904a27.8528 27.8528 0 0 1 55.41888 0l6.00064 59.904a50.42176 50.42176 0 0 0 45.13792 45.13792l59.904 6.00064a27.8528 27.8528 0 0 1 0 55.41888l-59.904 6.00064a50.42176 50.42176 0 0 0-45.13792 45.13792l-6.00064 59.904a27.8528 27.8528 0 0 1-55.41888 0l-6.00064-59.904z"  horiz-adv-x="1024" />

    
    <glyph glyph-name="box-1" unicode="&#59472;" d="M758.23104 492.6464l-124.86656 73.19552a20.48 20.48 0 0 0 0 35.328l111.06304 65.10592a81.92 81.92 0 0 0 82.82112 0l94.80192-55.5008A81.92 81.92 0 0 0 962.56 540.0576v-312.15616a81.92 81.92 0 0 0-40.50944-70.67648l-92.50816-54.19008A20.48 20.48 0 0 0 798.72 120.7296v301.2608a81.92 81.92 0 0 1-40.48896 70.656z m-194.1504-545.09568a103.17824 103.17824 0 0 0-104.18176 0l-91.70944 53.73952A81.92 81.92 0 0 0 327.68 71.96672V375.02976a81.92 81.92 0 0 0 40.48896 70.67648l112.64 66.02752a81.92 81.92 0 0 0 82.86208 0l112.64-66.02752A81.92 81.92 0 0 0 716.8 375.05024V83.968a81.92 81.92 0 0 0-40.50944-70.69696l-112.18944-65.72032z m-349.16352 143.52384l-112.96768 66.1504A81.92 81.92 0 0 0 61.44 227.9424V540.07808a81.92 81.92 0 0 0 40.50944 70.67648l105.04192 61.52192a81.92 81.92 0 0 0 82.82112 0l121.28256-71.10656a20.48 20.48 0 0 0 0-35.328l-124.84608-73.19552A81.92 81.92 0 0 1 245.76 421.9904v-313.26208a20.48 20.48 0 0 0-30.84288-17.65376zM359.58784 761.6512l100.31104 58.7776a103.17824 103.17824 0 0 0 104.20224 0l110.55104-64.77824a20.48 20.48 0 0 0 0-35.328l-111.0016-65.06496a81.92 81.92 0 0 0-82.8416 0l-121.2416 71.0656a20.48 20.48 0 0 0 0 35.328z"  horiz-adv-x="1024" />

    
    <glyph glyph-name="book" unicode="&#59473;" d="M962.56 680.96V117.76a61.44 61.44 0 0 0-61.44-61.44H635.94496c-13.9264 0-27.48416-7.24992-38.37952-15.9744l-34.4064-27.50464a81.92 81.92 0 0 0-102.33856 0l-34.4064 27.50464c-10.87488 8.72448-24.41216 15.9744-38.35904 15.9744H122.88a61.44 61.44 0 0 0-61.44 61.44V680.96a30.72 30.72 0 0 0 61.44 0V158.72a40.96 40.96 0 0 1 40.96-40.96h245.76c13.312 0 26.2144-6.81984 36.864-14.78656l40.96-30.72a40.96 40.96 0 0 1 49.152 0l40.96 30.72c10.6496 7.9872 23.552 14.78656 36.864 14.78656h245.76a40.96 40.96 0 0 1 40.96 40.96V680.96a30.72 30.72 0 0 0 61.44 0zM540.95872 740.82304l14.47936 14.39744A61.60384 61.60384 0 0 0 598.89664 773.12H798.72a40.96 40.96 0 0 0 40.96-40.96v-508.7232a40.96 40.96 0 0 0-40.96-40.96h-199.82336a61.6448 61.6448 0 0 1-43.45856-17.89952l-14.47936-14.39744a41.12384 41.12384 0 0 0-57.91744 0l-14.47936 14.39744a61.60384 61.60384 0 0 1-43.45856 17.89952H225.28a40.96 40.96 0 0 0-40.96 40.96V732.16a40.96 40.96 0 0 0 40.96 40.96h199.82336c16.30208 0 31.9488-6.43072 43.45856-17.89952l14.47936-14.39744a41.12384 41.12384 0 0 1 57.91744 0z"  horiz-adv-x="1024" />

    
    <glyph glyph-name="brain" unicode="&#59474;" d="M228.63872 690.29888A133.12 133.12 0 0 0 491.52 660.48v-552.96a133.12 133.12 0 0 0-228.22912-93.12256 31.08864 31.08864 0 0 1-2.02752 2.21184 125.29664 125.29664 0 0 0-1.69984 1.7408A132.608 132.608 0 0 0 225.28 105.45152c0.49152 30.80192 12.4928 61.44 35.96288 84.93056a30.72 30.72 0 1 1-43.43808 43.43808 183.45984 183.45984 0 0 1-48.9472-87.36768A133.18144 133.18144 0 0 0 81.92 271.36v0.02048a122.88 122.88 0 0 0 122.88 122.85952 30.72 30.72 0 0 1 0 61.44c-37.6832 0-72.74496-11.30496-101.94944-30.72A132.5056 132.5056 0 0 0 81.92 496.64c0 37.0688 15.1552 70.59456 39.58784 94.74048 0.90112 0.7168 1.78176 1.49504 2.62144 2.31424a125.1328 125.1328 0 0 0 2.92864 2.84672 132.58752 132.58752 0 0 0 83.68128 33.15712 122.49088 122.49088 0 0 0 87.16288-36.00384 30.72 30.72 0 0 1 43.43808 43.45856 183.56224 183.56224 0 0 1-112.70144 53.1456z m566.72256 0a183.56224 183.56224 0 0 1-112.70144-53.1456 30.72 30.72 0 0 1 43.43808-43.45856 122.49088 122.49088 0 0 0 87.16288 36.00384c32.03072-1.024 61.2352-13.37344 83.68128-33.1776 1.00352-0.90112 1.96608-1.8432 2.92864-2.82624 0.83968-0.8192 1.72032-1.59744 2.62144-2.31424A132.7104 132.7104 0 0 0 942.08 496.64a132.5056 132.5056 0 0 0-20.93056-71.68A183.45984 183.45984 0 0 1 819.2 455.68a30.72 30.72 0 0 1 0-61.44 122.88 122.88 0 0 0 122.88-122.85952v-0.02048a133.18144 133.18144 0 0 0-86.97856-124.90752 183.45984 183.45984 0 0 1-48.92672 87.36768 30.72 30.72 0 0 1-43.43808-43.43808 122.4704 122.4704 0 0 0 35.96288-84.93056 132.608 132.608 0 0 0-34.26304-87.10144 125.29664 125.29664 0 0 0-1.69984-1.7408 34.0992 34.0992 0 0 1-2.02752-2.21184A133.12 133.12 0 0 0 532.48 107.52v552.96a133.12 133.12 0 0 0 262.88128 29.81888z"  horiz-adv-x="1024" />

    
    <glyph glyph-name="browser" unicode="&#59475;" d="M512-66.56C263.168-66.56 61.44 135.168 61.44 384S263.168 834.56 512 834.56s450.56-201.728 450.56-450.56-201.728-450.56-450.56-450.56z m-125.50144 602.27584a41.472 41.472 0 0 1-26.2144-26.2144l-112.39424-337.16224a41.472 41.472 0 0 1 52.46976-52.46976l337.14176 112.39424a41.472 41.472 0 0 1 26.2144 26.2144l112.39424 337.16224a41.472 41.472 0 0 1-52.46976 52.46976l-337.14176-112.39424zM512 302.08a81.92 81.92 0 1 0 0 163.84 81.92 81.92 0 0 0 0-163.84z"  horiz-adv-x="1024" />

    
    <glyph glyph-name="calc-" unicode="&#59476;" d="M204.8 773.12h614.4a81.92 81.92 0 0 0 81.92-81.92v-450.56c0-135.72096-110.03904-245.76-245.76-245.76H368.64c-135.72096 0-245.76 110.03904-245.76 245.76V691.2a81.92 81.92 0 0 0 81.92 81.92z m153.6-484.80256l-42.72128 42.72128a40.96 40.96 0 0 1-57.91744-57.91744l42.72128-42.72128-42.72128-42.72128a40.96 40.96 0 0 1 57.91744-57.91744l42.72128 42.72128 42.72128-42.72128a40.96 40.96 0 0 1 57.91744 57.91744L416.31744 230.4l42.72128 42.72128a40.96 40.96 0 0 1-57.91744 57.91744L358.4 288.31744zM389.12 588.8v40.96a40.96 40.96 0 1 1-81.92 0v-40.96h-40.96a40.96 40.96 0 1 1 0-81.92h40.96v-40.96a40.96 40.96 0 1 1 81.92 0v40.96h40.96a40.96 40.96 0 1 1 0 81.92h-40.96z m204.8-81.92h163.84a40.96 40.96 0 1 1 0 81.92h-163.84a40.96 40.96 0 1 1 0-81.92z m0-245.76h163.84a40.96 40.96 0 1 1 0 81.92h-163.84a40.96 40.96 0 1 1 0-81.92z m0-143.36h163.84a40.96 40.96 0 1 1 0 81.92h-163.84a40.96 40.96 0 1 1 0-81.92z"  horiz-adv-x="1024" />

    
    <glyph glyph-name="browser-" unicode="&#59477;" d="M204.8 773.12h614.4a81.92 81.92 0 0 0 81.92-81.92v-450.56c0-135.72096-110.03904-245.76-245.76-245.76H368.64c-135.72096 0-245.76 110.03904-245.76 245.76V691.2a81.92 81.92 0 0 0 81.92 81.92z m10.24-122.88a30.72 30.72 0 1 1 0 61.44 30.72 30.72 0 0 1 0-61.44z m102.4 0a30.72 30.72 0 1 1 0 61.44 30.72 30.72 0 0 1 0-61.44z m102.4 0a30.72 30.72 0 1 1 0 61.44 30.72 30.72 0 0 1 0-61.44zM245.76 568.32a40.96 40.96 0 0 1-40.96-40.96v-102.4a40.96 40.96 0 0 1 40.96-40.96h102.4a40.96 40.96 0 0 1 40.96 40.96v102.4a40.96 40.96 0 0 1-40.96 40.96h-102.4z m235.52 0a30.72 30.72 0 0 1 0-61.44h307.2a30.72 30.72 0 0 1 0 61.44h-307.2z m0-122.88a30.72 30.72 0 0 1 0-61.44h307.2a30.72 30.72 0 0 1 0 61.44h-307.2z m-245.76-122.88a30.72 30.72 0 0 1 0-61.44h552.96a30.72 30.72 0 0 1 0 61.44h-552.96z m122.88-122.88a30.72 30.72 0 0 1 0-61.44h307.2a30.72 30.72 0 0 1 0 61.44h-307.2z"  horiz-adv-x="1024" />

    
    <glyph glyph-name="brush" unicode="&#59478;" d="M266.24 834.56h491.52a81.92 81.92 0 0 0 81.92-81.92v-327.68H184.32V752.64a81.92 81.92 0 0 0 81.92 81.92z m0-61.44a20.48 20.48 0 0 1-20.48-20.48v-10.24c0-20.0704 5.7344-39.71072 16.4864-56.6272l72.72448-114.2784A54.10816 54.10816 0 0 1 430.08 578.56l17.44896 39.26016a61.44 61.44 0 0 0 77.7216 32.5632l57.99936-21.74976A56.36096 56.36096 0 0 1 655.36 660.48l8.11008 20.29568a61.44 61.44 0 0 0 45.01504 37.43744l49.664 9.9328A24.9856 24.9856 0 0 1 778.24 752.64a20.48 20.48 0 0 1-20.48 20.48H266.24z m333.86496-578.84672l18.5344-139.03872a107.58144 107.58144 0 1 0-213.27872 0l18.5344 139.03872A40.96 40.96 0 0 1 383.30368 240.64H266.24a81.92 81.92 0 0 0-81.92 81.92v40.96h655.36v-40.96a81.92 81.92 0 0 0-81.92-81.92h-117.06368a40.96 40.96 0 0 1-40.59136-46.36672zM512-5.12a40.96 40.96 0 1 1 0 81.92 40.96 40.96 0 0 1 0-81.92z"  horiz-adv-x="1024" />

    
    <glyph glyph-name="bullet-list" unicode="&#59479;" d="M204.8 588.8a81.92 81.92 0 1 0 0 163.84 81.92 81.92 0 0 0 0-163.84z m245.51424 163.59424l409.96864-34.05824C883.3024 716.43136 901.12 695.7056 901.12 670.72s-17.79712-45.71136-40.83712-47.616l-409.96864-34.05824c-41.7792-3.4816-78.2336 30.28992-81.44896 75.38688A88.43264 88.43264 0 0 0 368.64 670.72c0 45.2608 33.95584 81.92 75.85792 81.92 1.9456 0 3.8912-0.08192 5.81632-0.24576z m0-286.72l409.96864-34.05824C883.3024 429.71136 901.12 408.9856 901.12 384s-17.79712-45.71136-40.83712-47.616l-409.96864-34.05824c-41.7792-3.4816-78.2336 30.28992-81.44896 75.38688A88.43264 88.43264 0 0 0 368.64 384c0 45.2608 33.95584 81.92 75.85792 81.92 1.9456 0 3.8912-0.08192 5.81632-0.24576z m0-286.72l409.96864-34.05824C883.3024 142.99136 901.12 122.2656 901.12 97.28s-17.79712-45.71136-40.83712-47.616l-409.96864-34.05824c-41.7792-3.4816-78.2336 30.28992-81.44896 75.38688A88.43264 88.43264 0 0 0 368.64 97.28c0 45.2608 33.95584 81.92 75.85792 81.92 1.9456 0 3.8912-0.08192 5.81632-0.24576zM204.8 322.56a81.92 81.92 0 1 0 0 163.84 81.92 81.92 0 0 0 0-163.84z m0-307.2a81.92 81.92 0 1 0 0 163.84 81.92 81.92 0 0 0 0-163.84z"  horiz-adv-x="1024" />

    
    <glyph glyph-name="bus" unicode="&#59480;" d="M839.68 465.92v-491.52a40.96 40.96 0 0 0-40.96-40.96h-31.90784a40.96 40.96 0 0 0-38.87104 28.01664l-16.22016 48.66048a61.44 61.44 0 0 1-38.13376 38.6048C619.7248 67.44064 565.8624 76.8 512 76.8s-107.7248-9.35936-161.5872-28.0576a61.44 61.44 0 0 1-38.13376-38.62528l-16.22016-48.66048A40.96 40.96 0 0 0 257.18784-66.56H225.28a40.96 40.96 0 0 0-40.96 40.96V465.92l-34.07872 22.7328A61.44 61.44 0 0 0 122.88 539.7504V629.76a20.48 20.48 0 0 0 20.48 20.48h40.96V752.64a81.92 81.92 0 0 0 81.92 81.92h491.52a81.92 81.92 0 0 0 81.92-81.92v-102.4h40.96a20.48 20.48 0 0 0 20.48-20.48v-89.98912a61.44 61.44 0 0 0-27.36128-51.13856L839.68 465.92zM317.44 138.24a51.2 51.2 0 1 1 0 102.4 51.2 51.2 0 0 1 0-102.4z m389.12 0a51.2 51.2 0 1 1 0 102.4 51.2 51.2 0 0 1 0-102.4z m-266.24 81.92a30.72 30.72 0 0 1 0-61.44h143.36a30.72 30.72 0 0 1 0 61.44h-143.36z m71.68 81.92c72.11008 0 144.22016 10.58816 216.33024 31.744A40.96 40.96 0 0 1 757.76 373.12512V732.16a20.48 20.48 0 0 1-20.48 20.48H286.72a20.48 20.48 0 0 1-20.48-20.48v-359.03488a40.96 40.96 0 0 1 29.42976-39.3216C367.75936 312.68864 439.88992 302.08 512 302.08z"  horiz-adv-x="1024" />

    
    <glyph glyph-name="calendar-" unicode="&#59481;" d="M737.28 691.2h81.92a81.92 81.92 0 0 0 81.92-81.92v-368.64c0-135.72096-110.03904-245.76-245.76-245.76H368.64c-135.72096 0-245.76 110.03904-245.76 245.76V609.28a81.92 81.92 0 0 0 81.92 81.92h81.92V752.64a20.48 20.48 0 0 0 20.48 20.48h81.92a20.48 20.48 0 0 0 20.48-20.48v-61.44h204.8V752.64a20.48 20.48 0 0 0 20.48 20.48h81.92a20.48 20.48 0 0 0 20.48-20.48v-61.44z m-409.6-163.84a40.96 40.96 0 1 1 0-81.92h368.64a40.96 40.96 0 1 1 0 81.92H327.68z"  horiz-adv-x="1024" />

    
    <glyph glyph-name="card" unicode="&#59482;" d="M102.4 465.92h819.2a40.96 40.96 0 0 0 40.96-40.96v-122.88c0-135.72096-110.03904-245.76-245.76-245.76H307.2C171.47904 56.32 61.44 166.35904 61.44 302.08v122.88a40.96 40.96 0 0 0 40.96 40.96z m532.48-163.84a40.96 40.96 0 1 1 0-81.92h122.88a40.96 40.96 0 1 1 0 81.92h-122.88zM143.36 711.68h737.28a81.92 81.92 0 0 0 81.92-81.92v-40.96a40.96 40.96 0 0 0-40.96-40.96H102.4a40.96 40.96 0 0 0-40.96 40.96v40.96a81.92 81.92 0 0 0 81.92 81.92z"  horiz-adv-x="1024" />

    
    <glyph glyph-name="calendar-1" unicode="&#59483;" d="M737.28 691.2h81.92a81.92 81.92 0 0 0 81.92-81.92v-368.64c0-135.72096-110.03904-245.76-245.76-245.76H368.64c-135.72096 0-245.76 110.03904-245.76 245.76V609.28a81.92 81.92 0 0 0 81.92 81.92h81.92V752.64a20.48 20.48 0 0 0 20.48 20.48h81.92a20.48 20.48 0 0 0 20.48-20.48v-61.44h204.8V752.64a20.48 20.48 0 0 0 20.48 20.48h81.92a20.48 20.48 0 0 0 20.48-20.48v-61.44zM469.87264 441.61024a63.01696 63.01696 0 0 0-56.44288-56.44288l-74.87488-7.4752a34.816 34.816 0 0 1 0-69.30432l74.87488-7.4752a63.01696 63.01696 0 0 0 56.44288-56.44288l7.4752-74.87488a34.816 34.816 0 0 1 69.30432 0l7.4752 74.87488a63.01696 63.01696 0 0 0 56.44288 56.44288l74.87488 7.4752a34.816 34.816 0 0 1 0 69.30432l-74.87488 7.4752a63.01696 63.01696 0 0 0-56.44288 56.44288l-7.4752 74.87488a34.816 34.816 0 0 1-69.30432 0l-7.4752-74.87488z"  horiz-adv-x="1024" />

    
    <glyph glyph-name="calc-1" unicode="&#59484;" d="M266.24 834.56h491.52a81.92 81.92 0 0 0 81.92-81.92v-573.44c0-135.72096-110.03904-245.76-245.76-245.76h-163.84c-135.72096 0-245.76 110.03904-245.76 245.76V752.64a81.92 81.92 0 0 0 81.92 81.92z m61.44-122.88a20.48 20.48 0 0 1-20.48-20.48v-81.92a20.48 20.48 0 0 1 20.48-20.48h368.64a20.48 20.48 0 0 1 20.48 20.48v81.92a20.48 20.48 0 0 1-20.48 20.48H327.68z m0-368.64a20.48 20.48 0 0 1-20.48-20.48v-40.96a20.48 20.48 0 0 1 20.48-20.48h40.96a20.48 20.48 0 0 1 20.48 20.48v40.96a20.48 20.48 0 0 1-20.48 20.48h-40.96z m163.84 0a20.48 20.48 0 0 1-20.48-20.48v-40.96a20.48 20.48 0 0 1 20.48-20.48h40.96a20.48 20.48 0 0 1 20.48 20.48v40.96a20.48 20.48 0 0 1-20.48 20.48h-40.96z m-163.84 163.84a20.48 20.48 0 0 1-20.48-20.48v-40.96a20.48 20.48 0 0 1 20.48-20.48h40.96a20.48 20.48 0 0 1 20.48 20.48v40.96a20.48 20.48 0 0 1-20.48 20.48h-40.96z m163.84 0a20.48 20.48 0 0 1-20.48-20.48v-40.96a20.48 20.48 0 0 1 20.48-20.48h40.96a20.48 20.48 0 0 1 20.48 20.48v40.96a20.48 20.48 0 0 1-20.48 20.48h-40.96z m163.84 0a20.48 20.48 0 0 1-20.48-20.48v-40.96a20.48 20.48 0 0 1 20.48-20.48h40.96a20.48 20.48 0 0 1 20.48 20.48v40.96a20.48 20.48 0 0 1-20.48 20.48h-40.96z m0-163.84a20.48 20.48 0 0 1-20.48-20.48v-204.8a20.48 20.48 0 0 1 20.48-20.48h40.96a20.48 20.48 0 0 1 20.48 20.48V322.56a20.48 20.48 0 0 1-20.48 20.48h-40.96z m-327.68-163.84a20.48 20.48 0 0 1-20.48-20.48v-40.96a20.48 20.48 0 0 1 20.48-20.48h40.96a20.48 20.48 0 0 1 20.48 20.48v40.96a20.48 20.48 0 0 1-20.48 20.48h-40.96z m163.84 0a20.48 20.48 0 0 1-20.48-20.48v-40.96a20.48 20.48 0 0 1 20.48-20.48h40.96a20.48 20.48 0 0 1 20.48 20.48v40.96a20.48 20.48 0 0 1-20.48 20.48h-40.96z"  horiz-adv-x="1024" />

    
    <glyph glyph-name="calendar-2" unicode="&#59485;" d="M737.28 691.2h81.92a81.92 81.92 0 0 0 81.92-81.92v-368.64c0-135.72096-110.03904-245.76-245.76-245.76H368.64c-135.72096 0-245.76 110.03904-245.76 245.76V609.28a81.92 81.92 0 0 0 81.92 81.92h81.92V752.64a20.48 20.48 0 0 0 20.48 20.48h81.92a20.48 20.48 0 0 0 20.48-20.48v-61.44h204.8V752.64a20.48 20.48 0 0 0 20.48 20.48h81.92a20.48 20.48 0 0 0 20.48-20.48v-61.44zM470.97856 319.73376a44.7488 44.7488 0 0 0-55.0912-1.78176l-52.81792 38.46144a35.28704 35.28704 0 0 1-46.12096-3.91168 34.48832 34.48832 0 0 1-2.06848-45.71136l85.58592-105.22624a59.76064 59.76064 0 0 1 90.64448-3.072l217.12896 233.49248a32.256 32.256 0 0 1-0.55296 44.35968 33.11616 33.11616 0 0 1-44.99456 2.37568l-191.71328-158.98624z"  horiz-adv-x="1024" />

    
    <glyph glyph-name="car" unicode="&#59486;" d="M833.65888 588.8H921.6a20.48 20.48 0 0 0 20.48-20.48v-20.48a40.96 40.96 0 0 0-40.96-40.96h-33.73056l21.38112-51.95776A163.84 163.84 0 0 0 901.12 392.54016V35.84a40.96 40.96 0 0 0-40.96-40.96h-31.90784a40.96 40.96 0 0 0-38.87104 28.01664l-25.43616 76.32896a40.96 40.96 0 0 1-25.31328 25.7024C674.34496 147.456 598.81472 158.72 512 158.72c-86.81472 0-162.34496-11.264-226.63168-33.792a40.96 40.96 0 0 1-25.31328-25.7024l-25.43616-76.32896A40.96 40.96 0 0 0 195.74784-5.12H163.84a40.96 40.96 0 0 0-40.96 40.96V392.54016a163.84 163.84 0 0 0 12.34944 62.38208L156.61056 506.88H122.88a40.96 40.96 0 0 0-40.96 40.96v20.48a20.48 20.48 0 0 0 20.48 20.48h87.94112l49.78688 120.91392A102.4 102.4 0 0 0 334.80704 773.12h354.38592a102.4 102.4 0 0 0 94.67904-63.40608L833.6384 588.8z m-624.06656-165.13024a17.44896 17.44896 0 0 1-10.24 0.90112c-10.11712-2.19136-16.6912-12.77952-14.66368-23.67488l3.15392-16.9984c5.48864-29.55264 25.86624-53.32992 52.79744-61.60384l63.20128-19.456a17.46944 17.46944 0 0 1 5.14048-0.75776c10.32192 0 18.69824 9.0112 18.69824 20.13184v13.55776c0 24.20736-13.94688 45.8752-35.0208 54.3744l-83.06688 33.52576z m604.81536 0L731.3408 390.144c-21.07392-8.4992-35.0208-30.16704-35.0208-54.3744v-13.55776c0-11.12064 8.37632-20.13184 18.69824-20.13184 1.7408 0 3.4816 0.26624 5.12 0.77824l63.22176 19.43552c26.9312 8.27392 47.3088 32.0512 52.79744 61.60384l3.15392 16.9984c2.02752 10.89536-4.54656 21.504-14.66368 23.67488a17.44896 17.44896 0 0 1-10.24-0.90112zM409.51808 322.56a20.50048 20.50048 0 0 1-18.944-28.07808l9.216-23.12192a81.16224 81.16224 0 0 1 75.3664-51.2h73.68704c33.1776 0 63.03744 20.2752 75.3664 51.2l9.216 23.12192A20.43904 20.43904 0 0 1 614.48192 322.56H409.53856z"  horiz-adv-x="1024" />

    
    <glyph glyph-name="cart-" unicode="&#59487;" d="M856.63744 527.36h25.23136c33.25952 0 60.2112-27.50464 60.2112-61.44 0-3.54304-0.3072-7.08608-0.90112-10.58816l-41.1648-239.98464C887.17312 90.112 782.5408-5.12 657.69472-5.12H366.30528c-124.8256 0-229.45792 95.21152-242.29888 220.4672l-41.1648 239.98464c-5.7344 33.42336 16.1792 65.24928 48.90624 71.10656 3.44064 0.6144 6.90176 0.9216 10.38336 0.9216h25.23136L401.12128 761.11872a40.96 40.96 0 0 0 57.91744-57.91744L283.19744 527.36h457.60512l-175.84128 175.84128a40.96 40.96 0 0 0 57.91744 57.91744L856.63744 527.36zM348.16 404.48a40.96 40.96 0 1 1 0-81.92h327.68a40.96 40.96 0 1 1 0 81.92H348.16z m61.44-163.84a40.96 40.96 0 1 1 0-81.92h204.8a40.96 40.96 0 1 1 0 81.92H409.6z"  horiz-adv-x="1024" />

    
    <glyph glyph-name="cart-1" unicode="&#59488;" d="M887.84896 373.4528A244.69504 244.69504 0 0 1 737.28 424.96c-135.72096 0-245.76-110.03904-245.76-245.76a245.1456 245.1456 0 0 1 83.21024-184.32H365.44512c-107.17184 0-197.05856 79.13472-208.2816 183.35744L102.87104 682.61888c-4.85376 44.99456 28.52864 85.31968 74.5472 90.05056 2.90816 0.3072 5.8368 0.45056 8.76544 0.45056h651.63264C884.1216 773.12 921.6 736.4608 921.6 691.2c0-2.8672-0.16384-5.7344-0.45056-8.58112l-33.30048-309.16608zM327.68 650.24a184.32 184.32 0 0 1 368.64 0 40.96 40.96 0 1 1-81.92 0 102.4 102.4 0 0 0-204.8 0 40.96 40.96 0 1 1-81.92 0z m409.6-655.36a184.32 184.32 0 1 0 0 368.64 184.32 184.32 0 0 0 0-368.64z m40.96 225.28v40.96a40.96 40.96 0 1 1-81.92 0v-40.96h-40.96a40.96 40.96 0 1 1 0-81.92h40.96v-40.96a40.96 40.96 0 1 1 81.92 0v40.96h40.96a40.96 40.96 0 1 1 0 81.92h-40.96z"  horiz-adv-x="1024" />

    
    <glyph glyph-name="cart-2" unicode="&#59489;" d="M186.1632 773.12h651.6736C884.08064 773.12 921.6 736.4608 921.6 691.2c0-2.8672-0.16384-5.7344-0.45056-8.58112l-54.31296-504.38144C855.6544 73.99424 765.7472-5.12 658.55488-5.12H365.44512c-107.17184 0-197.05856 79.13472-208.2816 183.35744L102.87104 682.61888c-4.85376 44.99456 28.52864 85.31968 74.5472 90.05056 2.90816 0.3072 5.8368 0.45056 8.76544 0.45056zM667.648 76.8a131.072 131.072 0 0 1 131.072 131.072 32.768 32.768 0 1 1-65.536 0 65.536 65.536 0 0 0-65.536-65.536 32.768 32.768 0 1 1 0-65.536zM327.68 650.24a184.32 184.32 0 0 1 368.64 0 40.96 40.96 0 1 1-81.92 0 102.4 102.4 0 0 0-204.8 0 40.96 40.96 0 1 1-81.92 0z"  horiz-adv-x="1024" />

    
    <glyph glyph-name="cart-3" unicode="&#59490;" d="M307.2 568.32c0 113.11104 91.68896 204.8 204.8 204.8s204.8-91.68896 204.8-204.8h143.36a40.96 40.96 0 0 0 40.7552-45.07648l-43.1104-344.18688A204.8 204.8 0 0 0 654.0288-5.12h-284.0576a204.8 204.8 0 0 0-203.776 184.17664L123.0848 523.264A40.96 40.96 0 0 0 163.84 568.32h143.36z m81.92 0h245.76a122.88 122.88 0 1 1-245.76 0z m278.528-512a131.072 131.072 0 0 1 131.072 131.072 32.768 32.768 0 1 1-65.536 0 65.536 65.536 0 0 0-65.536-65.536 32.768 32.768 0 1 1 0-65.536z"  horiz-adv-x="1024" />

    
    <glyph glyph-name="cart-4" unicode="&#59491;" d="M880.76288 362.2912A244.8384 244.8384 0 0 1 716.8 424.96c-135.72096 0-245.76-110.03904-245.76-245.76a245.1456 245.1456 0 0 1 83.21024-184.32h-184.29952a204.8 204.8 0 0 0-203.75552 184.17664L123.0848 523.264A40.96 40.96 0 0 0 163.84 568.32h143.36c0 113.11104 91.68896 204.8 204.8 204.8s204.8-91.68896 204.8-204.8h143.36a40.96 40.96 0 0 0 40.7552-45.07648l-20.15232-160.9728zM389.12 568.32h245.76a122.88 122.88 0 1 1-245.76 0z m327.68-573.44a184.32 184.32 0 1 0 0 368.64 184.32 184.32 0 0 0 0-368.64z m40.96 225.28v40.96a40.96 40.96 0 1 1-81.92 0v-40.96h-40.96a40.96 40.96 0 1 1 0-81.92h40.96v-40.96a40.96 40.96 0 1 1 81.92 0v40.96h40.96a40.96 40.96 0 1 1 0 81.92h-40.96z"  horiz-adv-x="1024" />

    
    <glyph glyph-name="cart-5" unicode="&#59492;" d="M924.73344 359.5264A244.87936 244.87936 0 0 1 757.76 424.96a244.9408 244.9408 0 0 1-98.36544-20.48H348.16a40.96 40.96 0 1 1 0-81.92h209.96096a244.69504 244.69504 0 0 1-38.37952-81.92H409.6a40.96 40.96 0 1 1 0-81.92h103.23968a245.20704 245.20704 0 0 1 82.37056-163.84H366.30528c-124.8256 0-229.45792 95.21152-242.29888 220.4672l-41.1648 239.98464c-5.7344 33.42336 16.1792 65.24928 48.90624 71.10656 3.44064 0.6144 6.90176 0.9216 10.38336 0.9216h25.23136L401.12128 761.11872a40.96 40.96 0 0 0 57.91744-57.91744L283.19744 527.36h457.60512l-175.84128 175.84128a40.96 40.96 0 0 0 57.91744 57.91744L856.63744 527.36h25.23136c33.25952 0 60.2112-27.50464 60.2112-61.44 0-3.54304-0.3072-7.08608-0.90112-10.58816l-16.44544-95.80544zM757.76-5.12a184.32 184.32 0 1 0 0 368.64 184.32 184.32 0 0 0 0-368.64z m40.96 225.28v40.96a40.96 40.96 0 1 1-81.92 0v-40.96h-40.96a40.96 40.96 0 1 1 0-81.92h40.96v-40.96a40.96 40.96 0 1 1 81.92 0v40.96h40.96a40.96 40.96 0 1 1 0 81.92h-40.96z"  horiz-adv-x="1024" />

    
    <glyph glyph-name="cart-6" unicode="&#59493;" d="M382.68928 609.0752h455.20896c34.9184 0 63.22176-28.99968 63.22176-64.75776 0-5.632-0.7168-11.264-2.12992-16.6912l-24.90368-95.62112c-23.28576-89.45664-95.232-156.8768-184.27904-172.7488a149746.33984 149746.33984 0 0 0-331.71456-59.10528c-17.46944-2.94912-44.17536 7.8848-49.664 29.85984L200.43776 662.50752A37.72416 37.72416 0 0 1 163.84 691.0976a40.96 40.96 0 0 0-40.96 41.00096C122.88 754.74944 141.2096 773.12 163.84 773.12h44.9536a81.92 81.92 0 0 0 77.0048-54.00576l17.408-47.96416a81.92 81.92 0 0 1 79.4624-62.07488zM667.648 343.04a131.072 131.072 0 0 1 131.072 131.072 32.768 32.768 0 1 1-65.536 0 65.536 65.536 0 0 0-65.536-65.536 32.768 32.768 0 1 1 0-65.536zM819.2-5.12a81.92 81.92 0 1 0 0 163.84 81.92 81.92 0 0 0 0-163.84z m-552.96 0a81.92 81.92 0 1 0 0 163.84 81.92 81.92 0 0 0 0-163.84z"  horiz-adv-x="1024" />

    
    <glyph glyph-name="cart-7" unicode="&#59494;" d="M855.12192 382.3616A244.61312 244.61312 0 0 1 716.8 424.96c-121.5488 0-222.47424-88.22784-242.25792-204.12416-70.98368-12.65664-109.81376-19.5584-116.44928-20.6848-17.46944-2.94912-44.17536 7.8848-49.664 29.85984L200.43776 662.50752A37.72416 37.72416 0 0 1 163.84 691.0976a40.96 40.96 0 0 0-40.96 41.00096C122.88 754.74944 141.2096 773.12 163.84 773.12h44.9536a81.92 81.92 0 0 0 77.0048-54.00576l17.408-47.96416a81.92 81.92 0 0 1 79.4624-62.07488h455.22944c34.9184 0 63.22176-28.99968 63.22176-64.75776 0-5.632-0.7168-11.264-2.12992-16.6912l-24.90368-95.62112a240.8448 240.8448 0 0 0-18.96448-49.64352zM266.24-5.12a81.92 81.92 0 1 0 0 163.84 81.92 81.92 0 0 0 0-163.84z m450.56 0a184.32 184.32 0 1 0 0 368.64 184.32 184.32 0 0 0 0-368.64z m40.96 225.28v40.96a40.96 40.96 0 1 1-81.92 0v-40.96h-40.96a40.96 40.96 0 1 1 0-81.92h40.96v-40.96a40.96 40.96 0 1 1 81.92 0v40.96h40.96a40.96 40.96 0 1 1 0 81.92h-40.96z"  horiz-adv-x="1024" />

    
    <glyph glyph-name="cards" unicode="&#59495;" d="M123.00288 486.4h777.99424a41.02144 41.02144 0 0 0 39.85408-50.8928l-71.5776-285.4912A205.27104 205.27104 0 0 0 670.0032-5.12h-316.0064a205.27104 205.27104 0 0 0-199.2704 155.136L83.1488 435.5072A40.96 40.96 0 0 0 123.00288 486.4zM307.2 773.12h409.6a40.96 40.96 0 1 0 0-81.92H307.2a40.96 40.96 0 1 0 0 81.92z m-81.92-143.36h573.44a40.96 40.96 0 1 0 0-81.92H225.28a40.96 40.96 0 1 0 0 81.92z"  horiz-adv-x="1024" />

    
    <glyph glyph-name="close-" unicode="&#59496;" d="M656.5888 346.17344l173.19936-216.4736a45.1584 45.1584 0 0 0-63.488-63.488l-216.4736 173.19936a60.53888 60.53888 0 0 1-75.65312 0l-216.4736-173.19936a45.1584 45.1584 0 0 0-63.488 63.488l173.19936 216.4736a60.53888 60.53888 0 0 1 0 75.65312l-173.19936 216.4736a45.1584 45.1584 0 0 0 63.488 63.488l216.4736-173.19936a60.53888 60.53888 0 0 1 75.65312 0l216.4736 173.19936a45.1584 45.1584 0 0 0 63.488-63.488l-173.19936-216.4736a60.53888 60.53888 0 0 1 0-75.65312z"  horiz-adv-x="1024" />

    
    <glyph glyph-name="cast" unicode="&#59497;" d="M573.44 97.28c0 260.15744-210.88256 471.04-471.04 471.04a40.96 40.96 0 0 0-40.96 40.96v30.72A71.68 71.68 0 0 0 133.12 711.68H880.64a81.92 81.92 0 0 0 81.92-81.92v-491.52a81.92 81.92 0 0 0-81.92-81.92H614.4a40.96 40.96 0 0 0-40.96 40.96zM102.4 56.32a40.96 40.96 0 1 0 0 81.92 40.96 40.96 0 0 0 0-81.92z m204.8 40.96a40.96 40.96 0 1 0-81.92 0 122.88 122.88 0 0 1-122.88 122.88 40.96 40.96 0 1 0 0 81.92c113.11104 0 204.8-91.68896 204.8-204.8z m163.84 0a40.96 40.96 0 1 0-81.92 0c0 158.35136-128.36864 286.72-286.72 286.72a40.96 40.96 0 1 0 0 81.92c203.59168 0 368.64-165.04832 368.64-368.64z"  horiz-adv-x="1024" />

    
    <glyph glyph-name="chart-" unicode="&#59498;" d="M204.8 773.12h614.4a81.92 81.92 0 0 0 81.92-81.92v-450.56c0-135.72096-110.03904-245.76-245.76-245.76H368.64c-135.72096 0-245.76 110.03904-245.76 245.76V691.2a81.92 81.92 0 0 0 81.92 81.92z m90.39872-540.95872l139.30496 139.30496 115.13856-82.2272a40.96 40.96 0 0 1 52.75648 4.36224l184.32 184.32a40.96 40.96 0 0 1-57.91744 57.91744l-159.78496-159.78496-115.13856 82.2272a40.96 40.96 0 0 1-52.75648-4.36224l-163.84-163.84a40.96 40.96 0 0 1 57.91744-57.91744z"  horiz-adv-x="1024" />

    
    <glyph glyph-name="chart-1" unicode="&#59499;" d="M204.8 773.12h614.4a81.92 81.92 0 0 0 81.92-81.92v-450.56c0-135.72096-110.03904-245.76-245.76-245.76H368.64c-135.72096 0-245.76 110.03904-245.76 245.76V691.2a81.92 81.92 0 0 0 81.92 81.92z m122.88-409.6a40.96 40.96 0 0 1-40.96-40.96v-122.88a40.96 40.96 0 1 1 81.92 0v122.88a40.96 40.96 0 0 1-40.96 40.96z m184.32 143.36a40.96 40.96 0 0 1-40.96-40.96v-266.24a40.96 40.96 0 1 1 81.92 0V465.92a40.96 40.96 0 0 1-40.96 40.96z m184.32 102.4a40.96 40.96 0 0 1-40.96-40.96v-368.64a40.96 40.96 0 1 1 81.92 0V568.32a40.96 40.96 0 0 1-40.96 40.96z"  horiz-adv-x="1024" />

    
    <glyph glyph-name="check-" unicode="&#59500;" d="M411.40224 333.824l385.20832 305.00864a53.0432 53.0432 0 0 0 70.20544-3.95264c18.432-18.39104 18.432-48.00512 0-66.39616l-423.7312-422.37952a97.77152 97.77152 0 0 0-143.79008 6.71744L155.2384 326.57408a51.36384 51.36384 0 0 0 3.33824 69.34528 54.784 54.784 0 0 0 71.12704 5.12l92.61056-68.608a73.40032 73.40032 0 0 1 89.088 1.39264z"  horiz-adv-x="1024" />

    
    <glyph glyph-name="close-1" unicode="&#59501;" d="M512-66.56C263.168-66.56 61.44 135.168 61.44 384S263.168 834.56 512 834.56s450.56-201.728 450.56-450.56-201.728-450.56-450.56-450.56z m212.7872 237.7728c15.38048 15.42144 16.73216 39.936 3.11296 56.9344l-97.15712 121.2416a55.33696 55.33696 0 0 0 0 69.2224l97.15712 121.2416a42.72128 42.72128 0 0 1-60.04736 60.04736l-121.2416-97.15712a55.33696 55.33696 0 0 0-69.2224 0l-121.2416 97.15712a42.72128 42.72128 0 0 1-60.04736-60.04736l97.15712-121.2416a55.33696 55.33696 0 0 0 0-69.2224l-97.15712-121.2416a42.72128 42.72128 0 0 1 60.04736-60.04736l121.2416 97.15712a55.33696 55.33696 0 0 0 69.2224 0l121.2416-97.15712c16.9984-13.6192 41.51296-12.26752 56.9344 3.13344z"  horiz-adv-x="1024" />

    
    <glyph glyph-name="check-1" unicode="&#59502;" d="M204.8 773.12h614.4a81.92 81.92 0 0 0 81.92-81.92v-614.4a81.92 81.92 0 0 0-81.92-81.92H204.8a81.92 81.92 0 0 0-81.92 81.92V691.2a81.92 81.92 0 0 0 81.92 81.92z m249.7536-406.54848a65.1264 65.1264 0 0 0-77.1072-2.3552l-73.9328 51.26144a51.22048 51.22048 0 0 1-64.59392-5.2224 44.38016 44.38016 0 0 1-2.88768-60.94848l119.808-140.288c2.1504-2.51904 4.44416-4.89472 6.8608-7.12704 33.9968-31.39584 87.7568-30.04416 120.03328 3.03104l304.00512 311.33696a41.53344 41.53344 0 0 1-0.77824 59.12576 48.06656 48.06656 0 0 1-62.976 3.1744L454.5536 366.57152z"  horiz-adv-x="1024" />

    
    <glyph glyph-name="check-2" unicode="&#59503;" d="M61.44 384C61.44 632.832 263.168 834.56 512 834.56s450.56-201.728 450.56-450.56-201.728-450.56-450.56-450.56S61.44 135.168 61.44 384z m393.1136-17.42848a65.1264 65.1264 0 0 0-77.1072-2.3552l-73.9328 51.26144a51.22048 51.22048 0 0 1-64.59392-5.2224 44.38016 44.38016 0 0 1-2.88768-60.94848l119.808-140.288c2.1504-2.51904 4.44416-4.89472 6.8608-7.12704 33.9968-31.39584 87.7568-30.04416 120.03328 3.03104l304.00512 311.33696a41.53344 41.53344 0 0 1-0.77824 59.12576 48.06656 48.06656 0 0 1-62.976 3.1744L454.5536 366.57152z"  horiz-adv-x="1024" />

    
    <glyph glyph-name="clock-" unicode="&#59504;" d="M512-66.56C263.168-66.56 61.44 135.168 61.44 384S263.168 834.56 512 834.56s450.56-201.728 450.56-450.56-201.728-450.56-450.56-450.56z m0 368.64a81.92 81.92 0 0 1 81.92 81.92V670.72a40.96 40.96 0 0 1-40.96 40.96c-23.51104 0-43.4176-17.28512-46.75584-40.5504l-27.15648-190.07488a81.92 81.92 0 0 0-63.32416-68.4032l-89.02656-19.7632A51.05664 51.05664 0 0 1 286.72 343.04a40.96 40.96 0 0 1 40.96-40.96h184.32z"  horiz-adv-x="1024" />

    
    <glyph glyph-name="close-2" unicode="&#59505;" d="M204.8 773.12h614.4a81.92 81.92 0 0 0 81.92-81.92v-614.4a81.92 81.92 0 0 0-81.92-81.92H204.8a81.92 81.92 0 0 0-81.92 81.92V691.2a81.92 81.92 0 0 0 81.92 81.92z m519.9872-601.9072c15.38048 15.42144 16.73216 39.936 3.11296 56.9344l-97.15712 121.2416a55.33696 55.33696 0 0 0 0 69.2224l97.15712 121.2416a42.72128 42.72128 0 0 1-60.04736 60.04736l-121.2416-97.15712a55.33696 55.33696 0 0 0-69.2224 0l-121.2416 97.15712a42.72128 42.72128 0 0 1-60.04736-60.04736l97.15712-121.2416a55.33696 55.33696 0 0 0 0-69.2224l-97.15712-121.2416a42.72128 42.72128 0 0 1 60.04736-60.04736l121.2416 97.15712a55.33696 55.33696 0 0 0 69.2224 0l121.2416-97.15712c16.9984-13.6192 41.51296-12.26752 56.9344 3.13344z"  horiz-adv-x="1024" />

    
    <glyph glyph-name="cloud-disable" unicode="&#59506;" d="M712.92928 642.8672l118.272 118.25152a40.96 40.96 0 0 0 57.91744-57.91744l-696.32-696.32a40.96 40.96 0 0 0-57.91744 57.91744L174.6944 104.6528A265.9328 265.9328 0 0 0 61.44 322.56c0 118.784 77.76256 219.36128 185.15968 253.66528C306.15552 658.30912 402.8416 711.68 512 711.68a326.2464 326.2464 0 0 0 200.92928-68.8128z m97.25952-122.81856c7.20896-15.7696 13.2096-32.23552 17.85856-49.23392A215.10144 215.10144 0 0 0 962.56 271.36C962.56 152.59648 866.28352 56.32 747.52 56.32H346.46016L810.1888 520.04864zM307.2 506.88a163.84 163.84 0 0 1-163.84-163.84 40.96 40.96 0 1 1 81.92 0 81.92 81.92 0 0 0 81.92 81.92 40.96 40.96 0 1 1 0 81.92z"  horiz-adv-x="1024" />

    
    <glyph glyph-name="cloud-download" unicode="&#59507;" d="M625.54112 124.68224l84.74624 94.16704A25.8048 25.8048 0 0 1 716.8 236.1344c0 13.80352-10.58816 25.00608-23.63392 25.00608h-71.168c-26.15296 0-48.128 20.2752-50.8928 47.04256l-16.6912 160.13312A42.8032 42.8032 0 0 1 512 506.88a42.8032 42.8032 0 0 1-42.41408-38.58432l-16.6912-160.13312C450.10944 281.41568 428.15488 261.12 402.0224 261.12h-71.168c-6.06208 0-11.89888-2.4576-16.30208-6.90176a26.05056 26.05056 0 0 1-0.8192-35.36896l84.74624-94.16704A40.96 40.96 0 0 0 368.00512 56.32H327.68C180.6336 56.32 61.44 175.5136 61.44 322.56c0 118.784 77.76256 219.36128 185.15968 253.66528C306.15552 658.30912 402.8416 711.68 512 711.68c150.9376 0 278.016-102.03136 316.04736-240.86528A215.10144 215.10144 0 0 0 962.56 271.36C962.56 152.59648 866.28352 56.32 747.52 56.32h-91.52512a40.96 40.96 0 0 0-30.45376 68.36224z"  horiz-adv-x="1024" />

    
    <glyph glyph-name="controller-" unicode="&#59508;" d="M450.56 452.17792v122.2656a61.44 61.44 0 0 1-21.27872 46.4896 78.39744 78.39744 0 0 0-4.17792 3.85024 122.88 122.88 0 1 0 173.79328 0 92.9792 92.9792 0 0 0-4.17792-3.85024A61.44 61.44 0 0 1 573.44 574.464v-122.2656c1.9456-0.9216 3.8912-1.90464 5.81632-2.90816l227.79904-120.29952A61.0304 61.0304 0 0 0 839.68 275.0464v-150.7328a61.0304 61.0304 0 0 0-32.62464-53.92384l-227.79904-120.29952a144.13824 144.13824 0 0 0-134.51264 0l-227.79904 120.29952A61.0304 61.0304 0 0 0 184.32 124.3136v150.7328a61.0304 61.0304 0 0 0 32.62464 53.92384l227.79904 120.29952c1.92512 1.024 3.87072 1.98656 5.81632 2.90816z m-53.63712-121.30304l-96.82944-51.69152a20.48 20.48 0 0 1 0-36.12672l182.8864-97.64864a62.21824 62.21824 0 0 1 58.01984 0l182.90688 97.64864a20.48 20.48 0 0 1 0 36.12672l-96.82944 51.69152c5.03808-8.94976 7.80288-18.65728 7.80288-28.79488 0-45.2608-55.00928-81.92-122.88-81.92s-122.88 36.6592-122.88 81.92c0 10.1376 2.7648 19.84512 7.80288 28.79488zM491.52 691.2a40.96 40.96 0 1 1 0 81.92 40.96 40.96 0 0 1 0-81.92z"  horiz-adv-x="1024" />

    
    <glyph glyph-name="colors" unicode="&#59509;" d="M689.43872 220.16v-122.88c0-90.48064-74.97728-163.84-167.46496-163.84C267.61216-66.56 61.44 135.168 61.44 384S267.63264 834.56 521.97376 834.56c169.3696 0 319.81568-88.064 397.4144-222.74048 33.15712-57.56928 47.2064-113.02912 42.1888-166.37952 0-56.54528-46.87872-102.4-104.67328-102.4h-41.8816c-69.36576 0-125.58336-55.00928-125.58336-122.88zM491.52 35.84a81.92 81.92 0 1 1 0 163.84 81.92 81.92 0 0 1 0-163.84z m-204.8 163.84a81.92 81.92 0 1 1 0 163.84 81.92 81.92 0 0 1 0-163.84z m-20.48 245.76a81.92 81.92 0 1 1 0 163.84 81.92 81.92 0 0 1 0-163.84z m204.8 122.88a81.92 81.92 0 1 1 0 163.84 81.92 81.92 0 0 1 0-163.84z m225.28-61.44a81.92 81.92 0 1 1 0 163.84 81.92 81.92 0 0 1 0-163.84z"  horiz-adv-x="1024" />

    
    <glyph glyph-name="controller-1" unicode="&#59510;" d="M604.16 302.08c18.8416 0 36.0448-10.6496 44.4416-27.48416l25.06752-50.11456A81.92 81.92 0 0 1 746.94656 179.2H798.72a40.96 40.96 0 0 0 40.96-40.96v-122.88a81.92 81.92 0 0 0-81.92-81.92H266.24a81.92 81.92 0 0 0-81.92 81.92v122.88a40.96 40.96 0 0 0 40.96 40.96h51.77344a81.92 81.92 0 0 1 73.27744 45.28128l25.04704 50.11456A49.70496 49.70496 0 0 0 419.84 302.08h10.24a20.48 20.48 0 0 1 20.48 20.48V574.44352a61.44 61.44 0 0 1-21.27872 46.4896 78.39744 78.39744 0 0 0-4.17792 3.85024 122.88 122.88 0 1 0 173.79328 0 92.9792 92.9792 0 0 0-4.17792-3.85024A61.44 61.44 0 0 1 573.44 574.464V322.56a20.48 20.48 0 0 1 20.48-20.48h10.24zM491.52 691.2a40.96 40.96 0 1 1 0 81.92 40.96 40.96 0 0 1 0-81.92z m-133.12-634.88a30.72 30.72 0 0 1 0-61.44h307.2a30.72 30.72 0 0 1 0 61.44h-307.2z"  horiz-adv-x="1024" />

    
    <glyph glyph-name="cloud-" unicode="&#59511;" d="M512 711.68c150.9376 0 278.016-102.03136 316.04736-240.86528A215.10144 215.10144 0 0 0 962.56 271.36C962.56 152.59648 866.28352 56.32 747.52 56.32H327.68C180.6336 56.32 61.44 175.5136 61.44 322.56c0 118.784 77.76256 219.36128 185.15968 253.66528C306.15552 658.30912 402.8416 711.68 512 711.68zM307.2 506.88a163.84 163.84 0 0 1-163.84-163.84 40.96 40.96 0 1 1 81.92 0 81.92 81.92 0 0 0 81.92 81.92 40.96 40.96 0 1 1 0 81.92z"  horiz-adv-x="1024" />

    
    <glyph glyph-name="command" unicode="&#59512;" d="M348.16 588.8v30.72a71.68 71.68 0 1 1-71.68-71.68H307.2a40.96 40.96 0 0 1 40.96 40.96z m81.92-409.6v-30.72a153.6 153.6 0 1 0-153.6 153.6H307.2a40.96 40.96 0 0 1 40.96 40.96v81.92a40.96 40.96 0 0 1-40.96 40.96h-30.72a153.6 153.6 0 1 0 153.6 153.6V588.8a40.96 40.96 0 0 1 40.96-40.96h81.92a40.96 40.96 0 0 1 40.96 40.96v30.72a153.6 153.6 0 1 0 153.6-153.6H716.8a40.96 40.96 0 0 1-40.96-40.96v-81.92a40.96 40.96 0 0 1 40.96-40.96h30.72a153.6 153.6 0 1 0-153.6-153.6V179.2a40.96 40.96 0 0 1-40.96 40.96h-81.92a40.96 40.96 0 0 1-40.96-40.96z m40.96 122.88h81.92a40.96 40.96 0 0 1 40.96 40.96v81.92a40.96 40.96 0 0 1-40.96 40.96h-81.92a40.96 40.96 0 0 1-40.96-40.96v-81.92a40.96 40.96 0 0 1 40.96-40.96z m245.76 245.76h30.72a71.68 71.68 0 1 1-71.68 71.68V588.8a40.96 40.96 0 0 1 40.96-40.96zM307.2 220.16h-30.72a71.68 71.68 0 1 1 71.68-71.68V179.2a40.96 40.96 0 0 1-40.96 40.96z m368.64-40.96v-30.72a71.68 71.68 0 1 1 71.68 71.68H716.8a40.96 40.96 0 0 1-40.96-40.96z"  horiz-adv-x="1024" />

    
    <glyph glyph-name="color-solid" unicode="&#59513;" d="M727.6544 395.264a102.83008 102.83008 0 0 0 0-145.408L482.304 4.5056a102.83008 102.83008 0 0 0-145.408 0L91.5456 249.856a102.83008 102.83008 0 0 0 0 145.408l175.8208 175.8208a81.92 81.92 0 0 1 0 115.83488L242.8928 711.39328a60.14976 60.14976 0 0 0 85.07392 85.07392L727.6544 395.264zM409.6 568.32L163.84 322.56h491.52L409.6 568.32z m552.96-489.6768c0-57.5488-45.85472-104.2432-102.4-104.2432s-102.4 46.6944-102.4 104.2432c0 22.528 7.04512 43.99104 19.8656 61.72672l60.29312 107.60192a25.37472 25.37472 0 0 0 44.48256 0l60.3136-107.60192c12.8-17.73568 19.84512-39.2192 19.84512-61.70624z"  horiz-adv-x="1024" />

    
    <glyph glyph-name="cloud-upload" unicode="&#59514;" d="M561.72544 124.1088l9.37984 89.96864C573.89056 240.82432 595.84512 261.12 621.9776 261.12h71.168c13.04576 0 23.63392 11.20256 23.63392 25.00608a25.8048 25.8048 0 0 1-6.51264 17.26464l-172.62592 191.83616a34.07872 34.07872 0 0 1-50.11456 1.31072l-173.83424-193.14688a26.05056 26.05056 0 0 1 0.8192-35.36896c4.4032-4.42368 10.24-6.90176 16.30208-6.90176h71.168c26.15296 0 48.128-20.2752 50.8928-47.04256l9.37984-89.94816A61.44 61.44 0 0 0 401.16224 56.32H327.68C180.6336 56.32 61.44 175.5136 61.44 322.56c0 118.784 77.76256 219.36128 185.15968 253.66528C306.15552 658.30912 402.8416 711.68 512 711.68c150.9376 0 278.016-102.03136 316.04736-240.86528A215.10144 215.10144 0 0 0 962.56 271.36C962.56 152.59648 866.28352 56.32 747.52 56.32h-124.68224a61.44 61.44 0 0 0-61.11232 67.7888z"  horiz-adv-x="1024" />

    
    <glyph glyph-name="coordinate" unicode="&#59515;" d="M878.3872 343.04c-18.88256-170.86464-154.56256-306.54464-325.4272-325.4272V-25.6a40.96 40.96 0 1 0-81.92 0v43.2128C300.17536 36.49536 164.49536 172.17536 145.6128 343.04H102.4a40.96 40.96 0 1 0 0 81.92h43.2128C164.49536 595.82464 300.17536 731.50464 471.04 750.3872V793.6a40.96 40.96 0 1 0 81.92 0v-43.2128c170.86464-18.88256 306.54464-154.56256 325.4272-325.4272H921.6a40.96 40.96 0 1 0 0-81.92h-43.2128zM512 199.68a184.32 184.32 0 1 1 0 368.64 184.32 184.32 0 0 1 0-368.64z m0 81.92a102.4 102.4 0 1 0 0 204.8 102.4 102.4 0 0 0 0-204.8z"  horiz-adv-x="1024" />

    
    <glyph glyph-name="coordinate-disable" unicode="&#59516;" d="M223.96928 153.9072A366.8992 366.8992 0 0 0 145.6128 343.04H102.4a40.96 40.96 0 1 0 0 81.92h43.2128C164.49536 595.82464 300.17536 731.50464 471.04 750.3872V793.6a40.96 40.96 0 1 0 81.92 0v-43.2128a366.8992 366.8992 0 0 0 189.1328-78.35648l89.088 89.088a40.96 40.96 0 0 0 57.9584-57.91744l-696.32-696.32a40.96 40.96 0 0 0-57.9584 57.91744l89.10848 89.088zM610.11968 540.0576A184.32 184.32 0 0 1 355.9424 285.88032l60.70272 60.70272a102.4 102.4 0 0 0 132.77184 132.77184l60.70272 60.70272zM345.2928 55.13216l145.73568 145.73568a184.32 184.32 0 0 1 204.14464 204.14464l145.7152 145.7152A366.1824 366.1824 0 0 0 878.3872 424.96H921.6a40.96 40.96 0 1 0 0-81.92h-43.2128c-18.88256-170.86464-154.56256-306.54464-325.4272-325.4272V-25.6a40.96 40.96 0 1 0-81.92 0v43.2128a366.1824 366.1824 0 0 0-125.76768 37.51936z"  horiz-adv-x="1024" />

    
    <glyph glyph-name="coins" unicode="&#59517;" d="M122.88 650.24c0 67.87072 174.22336 122.88 389.12 122.88 214.91712 0 389.12-55.00928 389.12-122.88v-40.96c0-67.87072-174.20288-122.88-389.12-122.88-214.89664 0-389.12 55.00928-389.12 122.88v40.96z m715.42784-170.74176c19.1488 13.18912 44.4416 6.92224 56.50432-13.98784 12.0832-20.93056 6.3488-48.57856-12.8-61.76768C808.7552 353.21856 667.91424 322.56 512 322.56c-155.91424 0-296.7552 30.65856-370.01216 81.18272C122.88 416.93184 117.1456 444.57984 129.2288 465.5104c12.06272 20.91008 37.35552 27.17696 56.48384 13.98784 57.69216-39.79264 184.46336-67.3792 326.30784-67.3792 141.86496 0 268.63616 27.58656 326.30784 67.3792z m0-163.84c19.1488 13.18912 44.4416 6.92224 56.50432-13.98784 12.0832-20.93056 6.3488-48.57856-12.8-61.76768C808.7552 189.37856 667.91424 158.72 512 158.72c-155.91424 0-296.7552 30.65856-370.01216 81.18272C122.88 253.09184 117.1456 280.73984 129.2288 301.6704c12.06272 20.91008 37.35552 27.17696 56.48384 13.98784 57.69216-39.79264 184.46336-67.3792 326.30784-67.3792 141.86496 0 268.63616 27.58656 326.30784 67.3792z m0-163.84c19.1488 13.18912 44.4416 6.92224 56.50432-13.98784 12.0832-20.93056 6.3488-48.57856-12.8-61.76768C808.7552 25.53856 667.91424-5.12 512-5.12c-155.91424 0-296.7552 30.65856-370.01216 81.18272C122.88 89.25184 117.1456 116.89984 129.2288 137.8304c12.06272 20.91008 37.35552 27.17696 56.48384 13.98784 57.69216-39.79264 184.46336-67.3792 326.30784-67.3792 141.86496 0 268.63616 27.58656 326.30784 67.3792z"  horiz-adv-x="1024" />

    
    <glyph glyph-name="crown" unicode="&#59518;" d="M512 588.8a61.44 61.44 0 1 0 0 122.88 61.44 61.44 0 0 0 0-122.88zM122.88 547.84a61.44 61.44 0 1 0 0 122.88 61.44 61.44 0 0 0 0-122.88z m778.24 0a61.44 61.44 0 1 0 0 122.88 61.44 61.44 0 0 0 0-122.88z m-211.84512-192.43008l154.76736 148.5824c8.192 7.86432 21.7088 8.04864 30.14656 0.4096a19.0464 19.0464 0 0 0 5.98016-18.432L803.5328 150.7328c-12.5952-55.05024-64.7168-94.4128-125.05088-94.4128H345.4976c-60.33408 0-112.45568 39.36256-125.05088 94.4128L143.83104 485.9904c-2.4576 10.73152 4.89472 21.2992 16.384 23.57248 7.168 1.4336 14.62272-0.67584 19.74272-5.57056l154.76736-148.5824c16.40448-15.74912 43.39712-16.09728 60.27264-0.77824 3.54304 3.19488 6.4512 6.9632 8.6016 11.10016l89.25184 170.92608c5.14048 9.87136 17.89952 13.98784 28.4672 9.17504 4.3008-1.9456 7.76192-5.18144 9.8304-9.17504l89.25184-170.92608c10.30144-19.7632 35.81952-27.9552 56.97536-18.35008 4.44416 2.02752 8.45824 4.73088 11.89888 8.02816z"  horiz-adv-x="1024" />

    
    <glyph glyph-name="cpu" unicode="&#59519;" d="M860.16 158.72v-20.48a102.4 102.4 0 0 0-102.4-102.4h-20.48a20.48 20.48 0 0 1-20.48-20.48v-61.44a20.48 20.48 0 0 0-20.48-20.48h-40.96a20.48 20.48 0 0 0-20.48 20.48v61.44a20.48 20.48 0 0 1-20.48 20.48h-40.96a20.48 20.48 0 0 1-20.48-20.48v-61.44a20.48 20.48 0 0 0-20.48-20.48h-40.96a20.48 20.48 0 0 0-20.48 20.48v61.44a20.48 20.48 0 0 1-20.48 20.48h-40.96a20.48 20.48 0 0 1-20.48-20.48v-61.44a20.48 20.48 0 0 0-20.48-20.48h-40.96a20.48 20.48 0 0 0-20.48 20.48v61.44a20.48 20.48 0 0 1-20.48 20.48h-20.48a102.4 102.4 0 0 0-102.4 102.4v20.48a20.48 20.48 0 0 1-20.48 20.48H81.92a20.48 20.48 0 0 0-20.48 20.48v40.96a20.48 20.48 0 0 0 20.48 20.48h61.44a20.48 20.48 0 0 1 20.48 20.48v40.96a20.48 20.48 0 0 1-20.48 20.48H81.92a20.48 20.48 0 0 0-20.48 20.48v40.96a20.48 20.48 0 0 0 20.48 20.48h61.44a20.48 20.48 0 0 1 20.48 20.48v40.96a20.48 20.48 0 0 1-20.48 20.48H81.92a20.48 20.48 0 0 0-20.48 20.48v40.96a20.48 20.48 0 0 0 20.48 20.48h61.44a20.48 20.48 0 0 1 20.48 20.48v20.48a102.4 102.4 0 0 0 102.4 102.4h20.48a20.48 20.48 0 0 1 20.48 20.48V814.08a20.48 20.48 0 0 0 20.48 20.48h40.96a20.48 20.48 0 0 0 20.48-20.48v-61.44a20.48 20.48 0 0 1 20.48-20.48h40.96a20.48 20.48 0 0 1 20.48 20.48V814.08a20.48 20.48 0 0 0 20.48 20.48h40.96a20.48 20.48 0 0 0 20.48-20.48v-61.44a20.48 20.48 0 0 1 20.48-20.48h40.96a20.48 20.48 0 0 1 20.48 20.48V814.08a20.48 20.48 0 0 0 20.48 20.48h40.96a20.48 20.48 0 0 0 20.48-20.48v-61.44a20.48 20.48 0 0 1 20.48-20.48h20.48a102.4 102.4 0 0 0 102.4-102.4v-20.48a20.48 20.48 0 0 1 20.48-20.48h61.44a20.48 20.48 0 0 0 20.48-20.48v-40.96a20.48 20.48 0 0 0-20.48-20.48h-61.44a20.48 20.48 0 0 1-20.48-20.48v-40.96a20.48 20.48 0 0 1 20.48-20.48h61.44a20.48 20.48 0 0 0 20.48-20.48v-40.96a20.48 20.48 0 0 0-20.48-20.48h-61.44a20.48 20.48 0 0 1-20.48-20.48v-40.96a20.48 20.48 0 0 1 20.48-20.48h61.44a20.48 20.48 0 0 0 20.48-20.48v-40.96a20.48 20.48 0 0 0-20.48-20.48h-61.44a20.48 20.48 0 0 1-20.48-20.48zM389.12 547.84a40.96 40.96 0 0 1-40.96-40.96v-245.76a40.96 40.96 0 0 1 40.96-40.96h245.76a40.96 40.96 0 0 1 40.96 40.96V506.88a40.96 40.96 0 0 1-40.96 40.96H389.12z"  horiz-adv-x="1024" />

    
    <glyph glyph-name="develop" unicode="&#59520;" d="M143.36 711.68h737.28a81.92 81.92 0 0 0 81.92-81.92v-327.68c0-135.72096-110.03904-245.76-245.76-245.76H307.2C171.47904 56.32 61.44 166.35904 61.44 302.08V629.76a81.92 81.92 0 0 0 81.92 81.92z m213.27872-401.12128L283.19744 384l73.44128 73.44128a40.96 40.96 0 0 1-57.91744 57.91744l-102.4-102.4a40.96 40.96 0 0 1 0-57.91744l102.4-102.4a40.96 40.96 0 0 1 57.91744 57.91744z m310.72256 146.88256L740.80256 384l-73.44128-73.44128a40.96 40.96 0 0 1 57.91744-57.91744l102.4 102.4a40.96 40.96 0 0 1 0 57.91744l-102.4 102.4a40.96 40.96 0 0 1-57.91744-57.91744z m-152.43264 44.17536l-81.92-204.8a40.96 40.96 0 0 1 76.06272-30.43328l81.92 204.8a40.96 40.96 0 0 1-76.06272 30.43328z"  horiz-adv-x="1024" />

    
    <glyph glyph-name="delivery-" unicode="&#59521;" d="M593.92 179.2h-163.84a122.88 122.88 0 1 0-245.76 0H143.36a81.92 81.92 0 0 0-81.92 81.92V629.76a81.92 81.92 0 0 0 81.92 81.92h471.04a81.92 81.92 0 0 0 81.92-81.92 40.96 40.96 0 0 1 40.96-40.96h68.46464a81.92 81.92 0 0 0 57.93792-24.00256l74.87488-74.87488A81.92 81.92 0 0 0 962.56 431.98464V261.12a81.92 81.92 0 0 0-81.92-81.92h-40.96a122.88 122.88 0 1 0-245.76 0z m-286.72-61.44a61.44 61.44 0 1 1 0 122.88 61.44 61.44 0 0 1 0-122.88z m409.6 0a61.44 61.44 0 1 1 0 122.88 61.44 61.44 0 0 1 0-122.88zM225.28 588.8a40.96 40.96 0 0 1-40.96-40.96v-163.84a40.96 40.96 0 1 1 81.92 0v163.84a40.96 40.96 0 0 1-40.96 40.96z m163.84 0a40.96 40.96 0 0 1-40.96-40.96v-163.84a40.96 40.96 0 1 1 81.92 0v163.84a40.96 40.96 0 0 1-40.96 40.96z m163.84 0a40.96 40.96 0 0 1-40.96-40.96v-163.84a40.96 40.96 0 1 1 81.92 0v163.84a40.96 40.96 0 0 1-40.96 40.96z"  horiz-adv-x="1024" />

    
    <glyph glyph-name="dashboard" unicode="&#59522;" d="M512-66.56C263.168-66.56 61.44 135.168 61.44 384S263.168 834.56 512 834.56s450.56-201.728 450.56-450.56-201.728-450.56-450.56-450.56z m196.32128 704.79872c-155.19744-116.57216-239.94368-182.02624-254.23872-196.32128a81.92 81.92 0 1 1 115.83488-115.83488c14.29504 14.29504 79.74912 99.04128 196.32128 254.23872a40.96 40.96 0 0 1-57.91744 57.91744z m-351.68256-40.96l-40.96 40.96a40.96 40.96 0 0 1-57.91744-57.91744l40.96-40.96a40.96 40.96 0 0 1 57.91744 57.91744zM552.96 650.24V711.68a40.96 40.96 0 1 1-81.92 0v-61.44a40.96 40.96 0 1 1 81.92 0zM245.76 424.96H184.32a40.96 40.96 0 1 1 0-81.92h61.44a40.96 40.96 0 1 1 0 81.92z m593.92 0h-61.44a40.96 40.96 0 1 1 0-81.92h61.44a40.96 40.96 0 1 1 0 81.92z"  horiz-adv-x="1024" />

    
    <glyph glyph-name="cup" unicode="&#59523;" d="M225.28 773.12h573.44a102.4 102.4 0 0 0 102.4-102.4v-74.46528a143.36 143.36 0 0 0-53.80096-111.94368l-150.28224-105.86112-7.84384-50.9952A102.4 102.4 0 0 0 587.9808 240.64h-151.9616a102.4 102.4 0 0 0-101.21216 86.8352l-7.84384 50.9952-150.28224 105.84064A143.36 143.36 0 0 0 122.88 596.25472V670.72a102.4 102.4 0 0 0 102.4 102.4z m286.72-319.2832l50.7904-45.056a16.46592 16.46592 0 0 1 27.2384 14.6432l-10.77248 77.4144 49.07008 37.0688a16.50688 16.50688 0 0 1-6.69696 29.36832l-64.63488 13.0048-30.24896 60.8256a16.4864 16.4864 0 0 1-29.4912 0l-30.24896-60.8256-64.65536-13.0048a16.4864 16.4864 0 0 1-6.67648-29.36832l49.07008-37.0688-14.336-76.8a16.46592 16.46592 0 0 1 26.7264-15.74912L512 453.8368z m227.81952 202.62912l-25.088-163.04128 81.408 54.86592A61.44 61.44 0 0 1 819.2 596.25472V670.72a20.48 20.48 0 0 1-20.48 20.48h-18.432a40.96 40.96 0 0 1-40.46848-34.73408zM243.712 691.2H225.28a20.48 20.48 0 0 1-20.48-20.48v-74.46528a61.44 61.44 0 0 1 23.06048-47.96416l81.408-54.8864-25.088 163.06176A40.96 40.96 0 0 1 243.712 691.2z m216.51456-542.72a30.72 30.72 0 0 0 30.72 30.72h42.10688a30.72 30.72 0 0 0 30.72-30.72 30.72 30.72 0 0 1 30.72-30.72c32.48128 0 61.2352-17.53088 75.30496-45.28128l24.33024-47.96416a20.35712 20.35712 0 0 0-9.29792-27.46368c-2.8672-1.4336-6.06208-2.17088-9.27744-2.17088H348.44672c-11.4688 0-20.76672 9.17504-20.76672 20.48 0 3.1744 0.75776 6.30784 2.19136 9.15456l24.30976 47.96416A83.21024 83.21024 0 0 0 428.48256 117.76c17.98144 0 31.744 13.76256 31.744 30.72z"  horiz-adv-x="1024" />

    
    <glyph glyph-name="download-" unicode="&#59524;" d="M441.07776 541.2864l20.00896 186.81856C463.83104 753.70496 485.80608 773.12 512 773.12c26.19392 0 48.16896-19.43552 50.91328-45.01504l20.00896-186.81856A61.44 61.44 0 0 1 644.01408 486.4h85.4016c15.64672 0 28.34432-13.06624 28.34432-29.184 0-7.49568-2.80576-14.70464-7.82336-20.13184L542.80192 213.25824a41.69728 41.69728 0 0 0-61.60384 0l-207.13472 223.8464a29.77792 29.77792 0 0 0 0.98304 41.24672c5.26336 5.16096 12.288 8.04864 19.5584 8.04864h85.4016a61.44 61.44 0 0 1 61.07136 54.8864zM214.7328 241.8688l23.26528-93.0816A40.96 40.96 0 0 1 277.72928 117.76h468.52096a40.96 40.96 0 0 1 39.7312 31.0272l23.28576 93.0816A52.46976 52.46976 0 0 0 860.16 281.6a40.96 40.96 0 0 0 40.96-40.96v-143.36a102.4 102.4 0 0 0-102.4-102.4H225.28a102.4 102.4 0 0 0-102.4 102.4v143.36a40.96 40.96 0 0 0 40.96 40.96c24.064 0 45.056-16.384 50.8928-39.7312z"  horiz-adv-x="1024" />

    
    <glyph glyph-name="diamond" unicode="&#59525;" d="M274.8416 752.64h474.3168c25.6 0 49.88928-11.55072 66.10944-31.4368l132.8128-162.9184a64.47104 64.47104 0 0 0-0.67584-82.24768L560.90624 17.65376a63.8976 63.8976 0 0 0-97.81248 0L76.5952 476.03712a64.47104 64.47104 0 0 0-0.67584 82.24768l132.8128 162.9184A85.2992 85.2992 0 0 0 274.8416 752.64zM757.76 568.32H266.24a40.96 40.96 0 1 1 0-81.92h491.52a40.96 40.96 0 1 1 0 81.92z"  horiz-adv-x="1024" />

    
    <glyph glyph-name="edit-" unicode="&#59526;" d="M356.12672 25.86624A105.96352 105.96352 0 0 0 280.69888-5.12l-121.56928 0.49152a35.96288 35.96288 0 0 0-35.75808 35.75808L122.88 152.69888a105.96352 105.96352 0 0 0 30.98624 75.42784L672.0512 749.73184a79.11424 79.11424 0 0 0 111.90272 0.43008l94.0032-94.0032a79.11424 79.11424 0 0 0 0-111.88224l-521.8304-518.41024zM752.78336 527.36L819.2 591.72864 719.72864 691.2 655.36 624.78336 752.78336 527.36zM298.72128 761.11872L430.08 629.76l-163.84-163.84-131.35872 131.35872a40.96 40.96 0 0 0 0 57.93792l105.90208 105.90208a40.96 40.96 0 0 0 57.93792 0z m426.55744-754.23744L593.92 138.24l163.84 163.84 131.35872-131.35872a40.96 40.96 0 0 0 0-57.93792l-105.90208-105.90208a40.96 40.96 0 0 0-57.93792 0z"  horiz-adv-x="1024" />

    
    <glyph glyph-name="disc" unicode="&#59527;" d="M512-66.56C263.168-66.56 61.44 135.168 61.44 384S263.168 834.56 512 834.56s450.56-201.728 450.56-450.56-201.728-450.56-450.56-450.56z m0 368.64a81.92 81.92 0 1 1 0 163.84 81.92 81.92 0 0 1 0-163.84z m-40.96 358.4c-130.06848 0-235.52-105.45152-235.52-235.52a30.72 30.72 0 0 1 61.44 0 174.08 174.08 0 0 0 174.08 174.08 30.72 30.72 0 0 1 0 61.44z m81.92-552.96c130.06848 0 235.52 105.45152 235.52 235.52a30.72 30.72 0 0 1-61.44 0 174.08 174.08 0 0 0-174.08-174.08 30.72 30.72 0 0 1 0-61.44z"  horiz-adv-x="1024" />

    
    <glyph glyph-name="edit-1" unicode="&#59528;" d="M363.3152-26.54208a137.13408 137.13408 0 0 0-97.60768-40.09984l-157.34784 0.63488a46.55104 46.55104 0 0 0-46.2848 46.2848l-0.6144 157.34784a137.13408 137.13408 0 0 0 40.07936 97.5872l564.6336 569.07776a102.4 102.4 0 0 0 145.1008 0.28672l121.38496-121.38496a102.4 102.4 0 0 0-0.28672-145.1008l-569.07776-564.6336z m360.448 773.07904l-82.82112-82.14528a20.6848 20.6848 0 0 1-0.06144-29.22496l121.77408-122.2656a20.50048 20.50048 0 0 1 29.12256 0.06144l82.80064 82.14528a20.6848 20.6848 0 0 1 0.06144 29.24544L752.8448 746.5984a20.50048 20.50048 0 0 1-29.12256-0.06144z"  horiz-adv-x="1024" />

    
    <glyph glyph-name="edit-2" unicode="&#59529;" d="M560.92672 230.66624A105.96352 105.96352 0 0 0 485.49888 199.68l-121.56928 0.49152a35.96288 35.96288 0 0 0-35.75808 35.75808L327.68 357.49888a105.96352 105.96352 0 0 0 30.98624 75.42784L672.0512 749.73184a79.11424 79.11424 0 0 0 111.90272 0.43008l94.0032-94.0032a79.11424 79.11424 0 0 0 0-111.88224l-317.0304-313.61024zM752.78336 527.36L819.2 591.72864 719.72864 691.2 655.36 624.78336 752.78336 527.36z m-281.27232 157.61408l-173.6704-26.7264A61.44 61.44 0 0 1 245.76 597.52448V179.2a61.44 61.44 0 0 1 61.44-61.44h418.32448a61.44 61.44 0 0 1 60.7232 52.10112l26.7264 173.6704A47.73888 47.73888 0 0 0 860.16 384a40.96 40.96 0 0 0 40.96-40.96v-225.28a122.88 122.88 0 0 0-122.88-122.88H245.76a122.88 122.88 0 0 0-122.88 122.88V650.24a122.88 122.88 0 0 0 122.88 122.88h225.28a40.96 40.96 0 0 0 40.96-40.96c0-23.552-17.2032-43.6224-40.48896-47.18592z"  horiz-adv-x="1024" />

    
    <glyph glyph-name="education" unicode="&#59530;" d="M573.91104 697.81504l363.13088-172.25728c22.79424-10.81344 32.03072-37.10976 20.64384-58.73664-4.46464-8.47872-11.71456-15.36-20.64384-19.57888l-363.13088-172.25728a145.14176 145.14176 0 0 0-123.82208 0L86.95808 447.24224c-22.79424 10.81344-32.03072 37.10976-20.64384 58.73664 4.46464 8.47872 11.71456 15.36 20.64384 19.57888l363.13088 172.25728a145.14176 145.14176 0 0 0 123.82208 0zM839.68 220.16c0-90.48064-146.69824-163.84-327.68-163.84S184.32 129.67936 184.32 220.16v80.50688a20.48 20.48 0 0 0 29.26592 18.51392l210.16576-99.69664a206.58176 206.58176 0 0 1 176.49664 0l210.16576 99.69664A20.48 20.48 0 0 0 839.68 300.6464V220.16z"  horiz-adv-x="1024" />

    
    <glyph glyph-name="equalizer" unicode="&#59531;" d="M757.76 527.36v61.44a40.96 40.96 0 1 1-81.92 0v-61.44a40.96 40.96 0 0 1-40.96-40.96v-81.92a40.96 40.96 0 0 1 40.96-40.96v-184.32a40.96 40.96 0 1 1 81.92 0v184.32a40.96 40.96 0 0 1 40.96 40.96v81.92a40.96 40.96 0 0 1-40.96 40.96z m-204.8-163.84V588.8a40.96 40.96 0 1 1-81.92 0v-225.28a40.96 40.96 0 0 1-40.96-40.96v-81.92a40.96 40.96 0 0 1 40.96-40.96v-20.48a40.96 40.96 0 1 1 81.92 0v20.48a40.96 40.96 0 0 1 40.96 40.96v81.92a40.96 40.96 0 0 1-40.96 40.96z m-204.8 184.32v40.96a40.96 40.96 0 1 1-81.92 0v-40.96a40.96 40.96 0 0 1-40.96-40.96v-81.92a40.96 40.96 0 0 1 40.96-40.96v-204.8a40.96 40.96 0 1 1 81.92 0V384a40.96 40.96 0 0 1 40.96 40.96v81.92a40.96 40.96 0 0 1-40.96 40.96zM204.8 773.12h614.4a81.92 81.92 0 0 0 81.92-81.92v-491.52c0-113.11104-91.68896-204.8-204.8-204.8H327.68c-113.11104 0-204.8 91.68896-204.8 204.8V691.2a81.92 81.92 0 0 0 81.92 81.92z"  horiz-adv-x="1024" />

    
    <glyph glyph-name="error-" unicode="&#59532;" d="M104.98048 607.06816l183.95136 183.95136C312.99584 815.06304 360.0384 834.56 393.99424 834.56h259.76832c33.97632 0 80.03584-20.21376 102.89152-45.1584l164.51584-179.46624c22.79424-24.8832 41.39008-72.62208 41.39008-106.496v-238.87872c0-33.87392-18.5344-81.55136-41.39008-106.496l-164.51584-179.46624C733.83936-46.2848 687.7184-66.56 653.76256-66.56H393.99424c-33.9968 0-80.9984 19.49696-105.0624 43.54048l-183.95136 183.95136C80.93696 184.99584 61.44 231.936 61.44 265.78944V502.21056c0 33.73056 19.49696 80.7936 43.54048 104.8576zM724.7872 171.2128c15.40096 15.40096 16.75264 39.936 3.13344 56.9344l-97.15712 121.2416a55.33696 55.33696 0 0 0 0 69.20192l97.15712 121.2416a42.72128 42.72128 0 0 1-60.04736 60.04736l-121.2416-97.15712a55.33696 55.33696 0 0 0-69.2224 0l-121.2416 97.15712a42.72128 42.72128 0 0 1-60.04736-60.04736l97.15712-121.2416a55.33696 55.33696 0 0 0 0-69.2224l-97.15712-121.2416a42.72128 42.72128 0 0 1 60.04736-60.04736l121.2416 97.15712a55.33696 55.33696 0 0 0 69.2224 0l121.2416-97.15712c16.9984-13.6192 41.51296-12.26752 56.9344 3.13344z"  horiz-adv-x="1024" />

    
    <glyph glyph-name="error-1" unicode="&#59533;" d="M593.8176 727.4496l356.00384-595.21024c26.15296-43.74528 10.73152-99.7376-34.44736-125.05088-14.39744-8.06912-30.72-12.30848-47.37024-12.30848H155.97568C103.75168-5.12 61.44 35.84 61.44 86.38464c0 16.09728 4.38272 31.92832 12.71808 45.8752L430.16192 727.4496c26.17344 43.7248 84.00896 58.65472 129.20832 33.34144a93.0816 93.0816 0 0 0 34.44736-33.34144zM512 76.8a61.44 61.44 0 1 1 0 122.88 61.44 61.44 0 0 1 0-122.88z m0 512a72.31488 72.31488 0 0 1-71.76192-81.3056l25.72288-205.7216a46.40768 46.40768 0 0 1 92.07808 0l25.72288 205.74208A72.31488 72.31488 0 0 1 512 588.8z"  horiz-adv-x="1024" />

    
    <glyph glyph-name="eye-disable" unicode="&#59534;" d="M728.82176 658.7392l102.37952 102.4a40.96 40.96 0 0 0 57.91744-57.9584l-696.32-696.32a40.96 40.96 0 0 0-57.91744 57.9584l87.8592 87.8592C124.55936 222.3104 61.44 315.78112 61.44 384 61.44 506.88 266.24 711.68 512 711.68c78.17216 0 152.20736-20.72576 216.82176-52.9408z m-387.6864-387.6864l59.26912 59.2896C393.29792 348.3648 389.12 367.12448 389.12 384a122.88 122.88 0 0 0 122.88 122.88c16.93696 0 35.18464-4.66944 52.51072-12.43136l60.416 60.416A203.83744 203.83744 0 0 1 512 588.8c-113.11104 0-204.8-91.68896-204.8-204.8 0-41.73824 12.4928-80.56832 33.93536-112.9472z m517.4272 297.3696C923.32032 507.2896 962.56 437.80096 962.56 384c0-122.88-204.8-327.68-450.56-327.68a468.992 468.992 0 0 0-142.76608 22.77376l103.81312 103.81312c12.5952-2.43712 25.62048-3.70688 38.95296-3.70688 113.11104 0 204.8 91.68896 204.8 204.8 0 13.312-1.26976 26.35776-3.6864 38.95296l145.44896 145.46944z"  horiz-adv-x="1024" />

    
    <glyph glyph-name="feed-" unicode="&#59535;" d="M819.2 773.12a81.92 81.92 0 0 0 81.92-81.92v-450.56c0-135.72096-110.03904-245.76-245.76-245.76H368.64c-135.72096 0-245.76 110.03904-245.76 245.76V691.2a81.92 81.92 0 0 0 81.92 81.92h614.4z m-512-163.84a40.96 40.96 0 0 1-40.96-40.96v-102.4a40.96 40.96 0 0 1 40.96-40.96h102.4a40.96 40.96 0 0 1 40.96 40.96v102.4a40.96 40.96 0 0 1-40.96 40.96h-102.4z m235.52 0a30.72 30.72 0 1 1 0-61.44h184.32a30.72 30.72 0 1 1 0 61.44h-184.32z m0-122.88a30.72 30.72 0 1 1 0-61.44h122.88a30.72 30.72 0 1 1 0 61.44h-122.88zM307.2 343.04a40.96 40.96 0 0 1-40.96-40.96v-102.4a40.96 40.96 0 0 1 40.96-40.96h102.4a40.96 40.96 0 0 1 40.96 40.96v102.4a40.96 40.96 0 0 1-40.96 40.96h-102.4z m235.52 0a30.72 30.72 0 1 1 0-61.44h184.32a30.72 30.72 0 1 1 0 61.44h-184.32z m0-122.88a30.72 30.72 0 1 1 0-61.44h122.88a30.72 30.72 0 1 1 0 61.44h-122.88z"  horiz-adv-x="1024" />

    
    <glyph glyph-name="feed-1" unicode="&#59536;" d="M266.24 670.72h491.52a81.92 81.92 0 0 0 81.92-81.92v-409.6a81.92 81.92 0 0 0-81.92-81.92H266.24a81.92 81.92 0 0 0-81.92 81.92V588.8a81.92 81.92 0 0 0 81.92 81.92z m-40.96 163.84h573.44a40.96 40.96 0 1 0 0-81.92H225.28a40.96 40.96 0 1 0 0 81.92z m0-819.2h573.44a40.96 40.96 0 1 0 0-81.92H225.28a40.96 40.96 0 1 0 0 81.92z"  horiz-adv-x="1024" />

    
    <glyph glyph-name="face-id" unicode="&#59537;" d="M204.8 773.12h614.4a81.92 81.92 0 0 0 81.92-81.92v-450.56c0-135.72096-110.03904-245.76-245.76-245.76H368.64c-135.72096 0-245.76 110.03904-245.76 245.76V691.2a81.92 81.92 0 0 0 81.92 81.92z m352.256-321.536v90.112a45.056 45.056 0 0 1-90.112 0v-135.168a45.056 45.056 0 0 1 45.056-45.056h45.056a45.056 45.056 0 0 1 0 90.112z m82.39104-149.97504a180.224 180.224 0 0 0-254.89408 0 45.056 45.056 0 1 1-63.6928-63.6928c105.55392-105.59488 276.72576-105.59488 382.30016 0a45.056 45.056 0 1 1-63.71328 63.6928zM647.168 564.224v-45.056a45.056 45.056 0 0 1 90.112 0v45.056a45.056 45.056 0 0 1-90.112 0z m-360.448 0v-45.056a45.056 45.056 0 0 1 90.112 0v45.056a45.056 45.056 0 0 1-90.112 0z"  horiz-adv-x="1024" />

    
    <glyph glyph-name="feather" unicode="&#59538;" d="M657.5104 333.37344C598.8352 370.40128 550.31808 414.57664 512 465.92c0-74.58816 13.68064-137.54368 41.02144-188.90752-87.3472-36.98688-179.93728-53.98528-264.3968-56.5248-40.83712-66.2528-70.71744-132.54656-84.86912-193.86368a40.96 40.96 0 1 0-79.81056 18.432c67.01056 290.38592 433.5616 664.12544 727.6544 727.1424a40.96 40.96 0 0 0 47.3088-53.39136c-32.5632-184.58624-126.01344-307.712-241.39776-385.4336z m-288.60416 353.28l-94.76096-10.50624a61.44 61.44 0 0 1-54.272-54.272l-10.5472-94.78144A45.7728 45.7728 0 0 0 163.86048 486.4a40.96 40.96 0 0 0-40.96 40.96v143.36a102.4 102.4 0 0 0 102.4 102.4h143.36a40.96 40.96 0 0 0 40.96-40.96 45.7728 45.7728 0 0 0-40.71424-45.48608zM655.11424 81.3056l94.76096 10.5472a61.44 61.44 0 0 1 54.272 54.272l10.5472 94.76096A45.7728 45.7728 0 0 0 860.16 281.6a40.96 40.96 0 0 0 40.96-40.96v-143.36a102.4 102.4 0 0 0-102.4-102.4h-143.36a40.96 40.96 0 0 0-40.96 40.96c0 23.30624 17.55136 42.9056 40.71424 45.4656z"  horiz-adv-x="1024" />

    
    <glyph glyph-name="file-" unicode="&#59539;" d="M266.24 834.56h317.7472a122.88 122.88 0 0 0 86.87616-35.98336l132.83328-132.83328A122.88 122.88 0 0 0 839.68 578.8672V179.2c0-135.72096-110.03904-245.76-245.76-245.76h-163.84c-135.72096 0-245.76 110.03904-245.76 245.76V752.64a81.92 81.92 0 0 0 81.92 81.92z m71.68-327.68a30.72 30.72 0 0 1 0-61.44h348.16a30.72 30.72 0 0 1 0 61.44h-348.16z m0-122.88a30.72 30.72 0 0 1 0-61.44h348.16a30.72 30.72 0 0 1 0 61.44h-348.16z m0-122.88a30.72 30.72 0 0 1 0-61.44h184.32a30.72 30.72 0 0 1 0 61.44h-184.32z"  horiz-adv-x="1024" />

    
    <glyph glyph-name="female" unicode="&#59540;" d="M305.43872 235.37664l61.76768 61.76768A295.64928 295.64928 0 0 0 307.2 476.16C307.2 640.16384 440.15616 773.12 604.16 773.12S901.12 640.16384 901.12 476.16 768.16384 179.2 604.16 179.2c-67.23584 0-129.2288 22.34368-179.01568 60.0064l-61.76768-61.76768a40.96 40.96 0 0 1 0-57.91744l54.70208-54.72256a40.96 40.96 0 0 0-57.91744-57.91744l-54.72256 54.70208a40.96 40.96 0 0 1-57.91744 0l-54.72256-54.70208a40.96 40.96 0 0 0-57.91744 57.91744l54.70208 54.72256a40.96 40.96 0 0 1 0 57.91744l-54.70208 54.72256a40.96 40.96 0 0 0 57.91744 57.91744l54.72256-54.70208a40.96 40.96 0 0 1 57.91744 0zM604.16 670.72a194.56 194.56 0 0 1-194.56-194.56 40.96 40.96 0 1 1 81.92 0 112.64 112.64 0 0 0 112.64 112.64 40.96 40.96 0 1 1 0 81.92z"  horiz-adv-x="1024" />

    
    <glyph glyph-name="filter-" unicode="&#59541;" d="M591.17568 309.76l-31.744-274.16576C556.72832 12.41088 536.30976-5.12 512-5.12c-24.30976 0-44.72832 17.53088-47.4112 40.71424l-31.744 274.16576a160.93184 160.93184 0 0 1-44.60544 93.3888L158.49472 640.49152a60.96896 60.96896 0 0 0-13.824 22.36416l-19.57888 56.36096c-7.4752 21.44256 4.62848 44.6464 26.99264 51.8144 4.36224 1.37216 8.9088 2.08896 13.5168 2.08896h692.81792C882.01216 773.12 901.12 754.7904 901.12 732.16c0-4.4032-0.73728-8.78592-2.19136-12.94336l-19.57888-56.36096a60.96896 60.96896 0 0 0-13.824-22.36416L635.78112 403.1488a160.93184 160.93184 0 0 1-44.60544-93.3888z m-292.4544 291.0208l102.4-102.4a40.96 40.96 0 0 1 57.91744 57.9584l-102.4 102.4a40.96 40.96 0 0 1-57.91744-57.9584z"  horiz-adv-x="1024" />

    
    <glyph glyph-name="filter-1" unicode="&#59542;" d="M512 773.12c214.89664 0 389.12-59.5968 389.12-133.12 0-149.25824-252.416-256.67584-286.72-419.84-14.41792-68.608-21.25824-130.048-20.48-184.32 0-22.6304-36.6592-40.96-81.92-40.96s-81.92 18.3296-81.92 40.96c0.77824 54.272-6.06208 115.712-20.48 184.32-34.304 163.16416-286.72 270.58176-286.72 419.84C122.88 713.5232 297.10336 773.12 512 773.12z m0-225.28c158.35136 0 286.72 41.2672 286.72 92.16S670.35136 732.16 512 732.16s-286.72-41.2672-286.72-92.16S353.64864 547.84 512 547.84z"  horiz-adv-x="1024" />

    
    <glyph glyph-name="file-1" unicode="&#59543;" d="M266.24 834.56h317.7472a122.88 122.88 0 0 0 86.87616-35.98336l132.83328-132.83328A122.88 122.88 0 0 0 839.68 578.8672V179.2c0-135.72096-110.03904-245.76-245.76-245.76h-163.84c-135.72096 0-245.76 110.03904-245.76 245.76V752.64a81.92 81.92 0 0 0 81.92 81.92z"  horiz-adv-x="1024" />

    
    <glyph glyph-name="filter-2" unicode="&#59544;" d="M742.33856 58.12224A122.83904 122.83904 0 0 0 634.88-5.12c-36.864 0-69.95968 16.24064-92.48768 41.984L163.65568 72.9088a45.056 45.056 0 0 0 0 89.7024l378.73664 36.0448A122.59328 122.59328 0 0 0 634.88 240.64a122.83904 122.83904 0 0 0 107.45856-63.24224l118.10816-13.88544a46.08 46.08 0 0 0 0-91.50464l-118.10816-13.88544zM420.0448 302.94016a122.88 122.88 0 0 0-202.5472 26.56256l-54.0672 7.74144a47.22688 47.22688 0 0 0 0 93.51168l54.0672 7.72096a122.88 122.88 0 0 0 202.5472 26.58304l440.25856-36.70016a44.52352 44.52352 0 0 0 0-88.71936L420.0448 302.94016z m183.9104 428.35968a122.88 122.88 0 0 0 202.5472-26.56256l54.0672-7.74144a47.22688 47.22688 0 0 0 0-93.51168l-54.0672-7.72096a122.88 122.88 0 0 0-202.5472-26.58304L163.69664 605.88032a44.52352 44.52352 0 0 0 0 88.71936L603.9552 731.29984zM696.32 588.8a61.44 61.44 0 1 1 0 122.88 61.44 61.44 0 0 1 0-122.88zM327.68 322.56a61.44 61.44 0 1 1 0 122.88 61.44 61.44 0 0 1 0-122.88z m307.2-266.24a61.44 61.44 0 1 1 0 122.88 61.44 61.44 0 0 1 0-122.88z"  horiz-adv-x="1024" />

    
    <glyph glyph-name="enlarge" unicode="&#59545;" d="M724.7872 171.2128a42.72128 42.72128 0 0 0-56.9344-3.11296l-121.2416 97.15712a55.33696 55.33696 0 0 1-69.2224 0l-121.2416-97.15712a42.72128 42.72128 0 0 0-60.04736 60.04736l97.15712 121.2416a55.33696 55.33696 0 0 1 0 69.2224l-97.15712 121.2416a42.72128 42.72128 0 0 0 60.04736 60.04736l121.2416-97.15712a55.33696 55.33696 0 0 1 69.2224 0l121.2416 97.15712a42.72128 42.72128 0 0 0 60.04736-60.04736l-97.15712-121.2416a55.33696 55.33696 0 0 1 0-69.2224l97.15712-121.2416c13.6192-16.9984 12.26752-41.51296-3.13344-56.9344zM368.86528 686.6944l-94.76096-10.5472a61.44 61.44 0 0 1-54.272-54.272l-10.52672-94.76096A45.7728 45.7728 0 0 0 163.84 486.4a40.96 40.96 0 0 0-40.96 40.96v143.36a102.4 102.4 0 0 0 102.4 102.4h143.36a40.96 40.96 0 0 0 40.96-40.96 45.7728 45.7728 0 0 0-40.71424-45.4656z m286.22848 0A45.7728 45.7728 0 0 0 614.4 732.16a40.96 40.96 0 0 0 40.96 40.96h143.36a102.4 102.4 0 0 0 102.4-102.4v-143.36a40.96 40.96 0 0 0-40.96-40.96 45.7728 45.7728 0 0 0-45.4656 40.71424l-10.5472 94.76096a61.44 61.44 0 0 1-54.272 54.272l-94.76096 10.52672zM368.88576 81.3056A45.7728 45.7728 0 0 0 409.6 35.84a40.96 40.96 0 0 0-40.96-40.96h-143.36a102.4 102.4 0 0 0-102.4 102.4v143.36a40.96 40.96 0 0 0 40.96 40.96c23.32672 0 42.9056-17.53088 45.4656-40.71424l10.5472-94.76096a61.44 61.44 0 0 1 54.272-54.272l94.76096-10.52672z m286.22848 0l94.76096 10.5472a61.44 61.44 0 0 1 54.272 54.272l10.52672 94.76096A45.7728 45.7728 0 0 0 860.16 281.6a40.96 40.96 0 0 0 40.96-40.96v-143.36a102.4 102.4 0 0 0-102.4-102.4h-143.36a40.96 40.96 0 0 0-40.96 40.96c0 23.32672 17.53088 42.9056 40.71424 45.4656z"  horiz-adv-x="1024" />

    
    <glyph glyph-name="eye" unicode="&#59546;" d="M548.18816 501.47328a61.44 61.44 0 1 1 81.28512-81.3056 122.88 122.88 0 1 0-81.28512 81.28512zM512 711.68c245.76 0 450.56-204.8 450.56-327.68S757.76 56.32 512 56.32 61.44 261.12 61.44 384 266.24 711.68 512 711.68z m0-532.48c113.11104 0 204.8 91.68896 204.8 204.8s-91.68896 204.8-204.8 204.8-204.8-91.68896-204.8-204.8 91.68896-204.8 204.8-204.8z"  horiz-adv-x="1024" />

    
    <glyph glyph-name="filter-switches" unicode="&#59547;" d="M901.12 588.8a184.32 184.32 0 0 0-184.32-184.32c-67.91168 0-111.22688 36.06528-123.6992 47.94368A122.88 122.88 0 0 1 508.3136 486.4H225.28a102.4 102.4 0 0 0 0 204.8h283.01312a122.88 122.88 0 0 1 84.82816 33.97632C605.57312 737.05472 648.88832 773.12 716.8 773.12a184.32 184.32 0 0 0 184.32-184.32z m-184.32-102.4a102.4 102.4 0 1 1 0 204.8 102.4 102.4 0 0 1 0-204.8zM122.88 179.2a184.32 184.32 0 0 0 184.32 184.32c67.91168 0 111.22688-36.06528 123.6992-47.94368A122.88 122.88 0 0 1 515.6864 281.6H798.72a102.4 102.4 0 0 0 0-204.8H515.70688a122.88 122.88 0 0 1-84.82816-33.97632C418.42688 30.94528 375.11168-5.12 307.2-5.12a184.32 184.32 0 0 0-184.32 184.32z m184.32-102.4a102.4 102.4 0 1 1 0 204.8 102.4 102.4 0 0 1 0-204.8z"  horiz-adv-x="1024" />

    
    <glyph glyph-name="flag-" unicode="&#59548;" d="M473.6 117.76H204.8a81.92 81.92 0 0 0-81.92 81.92V691.2a81.92 81.92 0 0 0 81.92 81.92h266.24l38.4-122.88H819.2a81.92 81.92 0 0 0 81.92-81.92v-491.52a81.92 81.92 0 0 0-81.92-81.92H512l-38.4 122.88z m147.61984-40.96H798.72a20.48 20.48 0 0 1 20.48 20.48V547.84a20.48 20.48 0 0 1-20.48 20.48H535.04L675.84 117.76l-54.62016-40.96z"  horiz-adv-x="1024" />

    
    <glyph glyph-name="folder-" unicode="&#59549;" d="M864.0512 527.36c21.95456 0 39.07584-19.456 36.864-41.86112L861.94176 165.888C852.3776 68.79232 772.7104-5.12 677.5808-5.12h-331.1616c-95.10912 0-174.77632 73.91232-184.34048 171.02848L123.06432 485.49888C120.87296 507.904 138.0352 527.36 159.9488 527.36h704.1024z m6.3488 61.44H163.84a40.96 40.96 0 0 0-40.96 40.96v61.44a81.92 81.92 0 0 0 81.92 81.92h181.4528a81.92 81.92 0 0 0 68.13696-36.47488l33.30048-49.93024A81.92 81.92 0 0 1 555.8272 650.24H870.4a30.72 30.72 0 0 0 0-61.44z"  horiz-adv-x="1024" />

    
    <glyph glyph-name="folder-1" unicode="&#59550;" d="M901.12 568.32v-327.68c0-135.72096-110.03904-245.76-245.76-245.76H368.64c-135.72096 0-245.76 110.03904-245.76 245.76V691.2a81.92 81.92 0 0 0 81.92 81.92h181.4528a81.92 81.92 0 0 0 68.13696-36.47488l33.30048-49.93024A81.92 81.92 0 0 1 555.8272 650.24H819.2a81.92 81.92 0 0 0 81.92-81.92z"  horiz-adv-x="1024" />

    
    <glyph glyph-name="ghost" unicode="&#59551;" d="M839.68 506.88v-443.12576a40.93952 40.93952 0 0 0-67.62496-31.06816l-45.38368 38.87104a40.98048 40.98048 0 0 1-57.09824-3.6864l-96.6656-107.33568a81.98144 81.98144 0 0 0-121.79456 0l-96.68608 107.3152a40.98048 40.98048 0 0 1-57.09824 3.6864l-45.38368-38.85056A40.98048 40.98048 0 0 0 184.32 63.75424V506.88c0 180.98176 146.69824 327.68 327.68 327.68s327.68-146.69824 327.68-327.68z m-266.24 0v-40.96a61.44 61.44 0 0 1 122.88 0v40.96a61.44 61.44 0 0 1-122.88 0z m-245.76 0v-40.96a61.44 61.44 0 0 1 122.88 0v40.96a61.44 61.44 0 0 1-122.88 0z"  horiz-adv-x="1024" />

    
    <glyph glyph-name="glasses" unicode="&#59552;" d="M204.8 332.47232A183.45984 183.45984 0 0 0 307.2 363.52c57.48736 0 110.44864-27.19744 158.9248-81.6128a61.44 61.44 0 0 1 91.7504 0C606.35136 336.32256 659.31264 363.52 716.8 363.52c37.888 0 73.1136-11.42784 102.4-31.04768V547.84a143.36 143.36 0 0 1-143.36 143.36 40.96 40.96 0 1 0 0 81.92c124.416 0 225.28-100.864 225.28-225.28v-368.64a184.32 184.32 0 0 0-184.32-184.32c-57.48736 0-110.44864 27.19744-158.9248 81.6128a61.44 61.44 0 0 1-91.7504 0C417.64864 22.07744 364.68736-5.12 307.2-5.12a184.32 184.32 0 0 0-184.32 184.32V547.84c0 124.416 100.864 225.28 225.28 225.28a40.96 40.96 0 1 0 0-81.92 143.36 143.36 0 0 1-143.36-143.36v-215.36768z m0-149.17632a24.576 24.576 0 1 1 49.152 0 49.152 49.152 0 0 0 49.152 49.152 24.576 24.576 0 1 1 0 49.152 98.304 98.304 0 0 1-98.304-98.304z m389.12 0a24.576 24.576 0 1 1 49.152 0 49.152 49.152 0 0 0 49.152 49.152 24.576 24.576 0 1 1 0 49.152 98.304 98.304 0 0 1-98.304-98.304z"  horiz-adv-x="1024" />

    
    <glyph glyph-name="game-boy" unicode="&#59553;" d="M266.24 834.56h491.52a81.92 81.92 0 0 0 81.92-81.92v-573.44c0-135.72096-110.03904-245.76-245.76-245.76H266.24a81.92 81.92 0 0 0-81.92 81.92V752.64a81.92 81.92 0 0 0 81.92 81.92z m20.48-81.92a20.48 20.48 0 0 1-20.48-20.48v-327.68a20.48 20.48 0 0 1 20.48-20.48h450.56a20.48 20.48 0 0 1 20.48 20.48V732.16a20.48 20.48 0 0 1-20.48 20.48H286.72z m430.08-532.48a40.96 40.96 0 1 1 0 81.92 40.96 40.96 0 0 1 0-81.92z m-81.92-122.88a40.96 40.96 0 1 1 0 81.92 40.96 40.96 0 0 1 0-81.92z m-225.28 143.36v20.48a40.96 40.96 0 1 1-81.92 0v-20.48h-20.48a40.96 40.96 0 1 1 0-81.92h20.48v-20.48a40.96 40.96 0 1 1 81.92 0v20.48h20.48a40.96 40.96 0 1 1 0 81.92h-20.48z"  horiz-adv-x="1024" />

    
    <glyph glyph-name="flag-1" unicode="&#59554;" d="M286.72 594.90304V-25.6a40.96 40.96 0 1 0-81.92 0V594.90304a81.92 81.92 0 0 1-28.30336 61.952 59.57632 59.57632 0 0 0-3.15392 2.88768 102.4 102.4 0 1 0 144.83456 0 59.57632 59.57632 0 0 0-3.15392-2.88768A81.92 81.92 0 0 1 286.72 594.90304zM245.76 691.2a40.96 40.96 0 1 1 0 81.92 40.96 40.96 0 0 1 0-81.92z m491.52-143.36h102.4a40.96 40.96 0 0 0 40.96-40.96v-286.72a40.96 40.96 0 0 0-40.96-40.96H532.48a40.96 40.96 0 0 0-40.96 40.96v40.96a40.96 40.96 0 0 1-40.96 40.96h-61.44a40.96 40.96 0 0 0-40.96 40.96V568.32a102.4 102.4 0 0 0 102.4 102.4h204.8a40.96 40.96 0 0 0 40.96-40.96v-40.96a40.96 40.96 0 0 1 40.96-40.96z"  horiz-adv-x="1024" />

    
    <glyph glyph-name="gift" unicode="&#59555;" d="M273.22368 650.24a122.88 122.88 0 1 0 477.53216 0H819.2a102.4 102.4 0 0 0 102.4-102.4v-40.96a40.96 40.96 0 0 0-40.96-40.96H143.36a40.96 40.96 0 0 0-40.96 40.96v40.96a102.4 102.4 0 0 0 102.4 102.4h68.42368zM430.08 650.24v40.96a40.96 40.96 0 1 1-40.96-40.96h40.96z m163.84 0h40.96a40.96 40.96 0 1 1-40.96 40.96v-40.96zM204.75904 404.48l175.04256-0.63488a81.92 81.92 0 0 0 80.7936-70.30784l31.1296-217.51808a20.48 20.48 0 0 1 40.5504 0l31.1296 217.4976a81.92 81.92 0 0 0 80.7936 70.32832L819.24096 404.48c22.58944 0 40.91904-17.53088 40.91904-39.17824 0-2.80576-0.3072-5.59104-0.94208-8.31488l-63.488-279.63392c-16.34304-72.04864-82.944-123.43296-159.9488-123.43296H388.23936c-77.0048 0-143.58528 51.38432-159.9488 123.43296l-63.488 279.63392c-4.79232 21.13536 9.216 41.984 31.29344 46.592 2.8672 0.6144 5.77536 0.90112 8.68352 0.90112z"  horiz-adv-x="1024" />

    
    <glyph glyph-name="games-" unicode="&#59556;" d="M727.04 424.96a174.08 174.08 0 1 0 0 348.16 174.08 174.08 0 0 0 0-348.16zM634.88 343.04h184.32a81.92 81.92 0 0 0 81.92-81.92v-184.32a81.92 81.92 0 0 0-81.92-81.92h-184.32a81.92 81.92 0 0 0-81.92 81.92v184.32a81.92 81.92 0 0 0 81.92 81.92zM336.97792 730.13248l128.16384-218.9312c12.43136-21.23776 4.58752-48.128-17.53088-60.08832a47.39072 47.39072 0 0 0-22.50752-5.67296H168.81664C143.44192 445.44 122.88 465.2032 122.88 489.5744c0 7.5776 2.048 15.03232 5.89824 21.64736l128.14336 218.9312c12.43136 21.21728 40.448 28.75392 62.54592 16.7936a45.056 45.056 0 0 0 17.5104-16.7936z m124.39552-725.58592a33.01376 33.01376 0 0 0-43.99104-2.41664l-93.67552 75.07968a42.76224 42.76224 0 0 1-53.49376 0L176.5376 2.12992a33.01376 33.01376 0 0 0-46.40768 46.40768l75.07968 93.67552a42.76224 42.76224 0 0 1 0 53.49376L130.12992 289.3824a33.01376 33.01376 0 0 0 46.40768 46.40768l93.67552-75.07968a42.76224 42.76224 0 0 1 53.49376 0l93.67552 75.07968a33.01376 33.01376 0 0 0 46.40768-46.40768l-75.07968-93.67552a42.76224 42.76224 0 0 1 0-53.49376l75.07968-93.67552a33.01376 33.01376 0 0 0-2.41664-43.99104z"  horiz-adv-x="1024" />

    
    </font>
</defs>
</svg>
